<?xml version="1.0" encoding="UTF-8" standalone="no"?>
<svg
   version="1.1"
   x="0px"
   y="0px"
   viewBox="0 -20.347 180 39.480884"
   enable-background="new 0 -20.347 180 80"
   xml:space="preserve"
   width="500"
   height="109.18439"
   id="svg8"
   sodipodi:docname="Antec logo.svg"
   inkscape:version="1.4 (86a8ad7, 2024-10-11)"
   xmlns:inkscape="http://www.inkscape.org/namespaces/inkscape"
   xmlns:sodipodi="http://sodipodi.sourceforge.net/DTD/sodipodi-0.dtd"
   xmlns="http://www.w3.org/2000/svg"
   xmlns:svg="http://www.w3.org/2000/svg"><sodipodi:namedview
   id="namedview8"
   pagecolor="#ffffff"
   bordercolor="#000000"
   borderopacity="0.25"
   inkscape:showpageshadow="2"
   inkscape:pageopacity="0.0"
   inkscape:pagecheckerboard="0"
   inkscape:deskcolor="#d1d1d1"
   inkscape:zoom="1.7695715"
   inkscape:cx="265.60103"
   inkscape:cy="22.039234"
   inkscape:window-width="1920"
   inkscape:window-height="1001"
   inkscape:window-x="-9"
   inkscape:window-y="-9"
   inkscape:window-maximized="1"
   inkscape:current-layer="svg8" />
                    <defs
   id="defs1">
                    </defs>
                    <path
   fill="#FFFFFF"
   d="m 35.908651,17.480577 -2.074168,-3.632054 c -0.195866,-0.343518 -0.562487,-0.55646 -0.958236,-0.55646 H 10.825781 c -0.8497548,0 -1.380099,-0.920067 -0.955221,-1.654312 L 21.271955,-8.1095335 c 0.424878,-0.7352498 1.48657,-0.7352498 1.911448,0 l 4.323109,7.4880982 c 0.19687,0.34150951 0.561482,0.55143741 0.956227,0.55143741 h 4.182487 c 0.850761,0 1.381105,-0.91906237 0.956227,-1.65431221 L 23.182399,-19.795186 c -0.423874,-0.73525 -1.485566,-0.736255 -1.911448,0 L 2.1675117,13.292063 -0.2481659,17.475555 c -0.42487796,0.73525 0.10546617,1.655317 0.95622662,1.655317 H 5.5434336 34.949411 c 0.847747,0.001 1.378091,-0.91404 0.95924,-1.650295 z"
   id="path1"
   style="fill:#000000;stroke-width:1" />
                    <path
   fill="#fcca00"
   d="M 35.914678,2.2854133 C 35.717807,1.9449082 35.353196,1.7339758 34.959455,1.7339758 h -6.091927 -5.958337 c -0.394744,0 -0.758351,0.2109324 -0.955221,0.5524419 l -1.768819,3.0625368 c -0.424878,0.7352499 0.106471,1.6553167 0.956227,1.6553167 h 10.879086 l -0.01004,0.014062 6.594146,11.5470388 c 0.196871,0.342514 0.560478,0.555455 0.955223,0.55646 l 4.177465,0.01205 c 0.851765,0.002 1.385122,-0.919062 0.95924,-1.656321 z"
   id="path2"
   style="stroke-width:1" />
                    <path
   fill="#fcca00"
   d="m 179.86696,6.8998094 c 0.35558,0.3555717 0.53437,0.7894896 0.53437,1.3057717 0,0.5122643 -0.17879,0.9431688 -0.53437,1.3007494 -0.35356,0.3555717 -0.79049,0.5283355 -1.30376,0.5283355 -0.51528,0 -0.94317,-0.1737683 -1.30075,-0.5283355 -0.35657,-0.3565761 -0.53336,-0.7884851 -0.53336,-1.3007494 0,-0.5162821 0.17679,-0.9502 0.53336,-1.3057717 0.35658,-0.3545672 0.78547,-0.5303442 1.30075,-0.5303442 0.51327,0 0.9502,0.175777 1.30376,0.5303442 z m -0.17778,0.1797947 c -0.30937,-0.3073585 -0.68403,-0.4620423 -1.12598,-0.4620423 -0.44195,0 -0.81862,0.1546838 -1.12397,0.4620423 -0.30535,0.3063542 -0.45903,0.6820146 -0.45903,1.125977 0,0.4419535 0.15368,0.8166095 0.45903,1.1219591 0.30535,0.3053497 0.68202,0.459029 1.12397,0.459029 0.44195,0 0.81661,-0.1536793 1.12598,-0.459029 0.30635,-0.306354 0.45802,-0.6800056 0.45802,-1.1219591 0,-0.4449669 -0.15167,-0.8206273 -0.45802,-1.125977 z m -1.77083,2.0912435 V 7.2272568 h 0.7232 c 0.15569,0 0.29028,0.055244 0.39976,0.1617148 0.10547,0.1094839 0.1577,0.2440788 0.1577,0.4047891 0,0.1556882 -0.0522,0.2912876 -0.16171,0.401776 -0.0512,0.051226 -0.10848,0.089395 -0.17678,0.1175194 l 0.33849,0.8567871 h -0.34653 l -0.32343,-0.8125917 h -0.32042 v 0.8125917 h -0.29028 z m 0.99942,-1.3760824 c 0,-0.080355 -0.0311,-0.1456438 -0.0834,-0.1958657 -0.0522,-0.052231 -0.11752,-0.083369 -0.19285,-0.083369 h -0.43292 v 0.2792342 0.274212 h 0.43292 c 0.0753,0 0.14162,-0.028124 0.19285,-0.08136 0.0522,-0.05424 0.0834,-0.116515 0.0834,-0.1928515 z"
   id="path3"
   style="stroke-width:1" />
                    <path
   fill="#fcca00"
   d="m 166.2568,9.7413694 c -4.62141,0 -10.74146,-0.6749834 -13.6674,-3.8952172 -1.29874,-1.43434 -1.85018,-3.2815047 -1.63723,-5.49127208 0.70813,-7.31633902 12.08341,-8.41017392 18.80009,-8.41017392 2.78732,0 5.12866,0.1818036 6.27574,0.292292 l 0.18381,0.016071 -1.39015,2.9339684 -0.0924,-0.010044 c -0.81661,-0.071315 -2.5111,-0.1908435 -4.62845,-0.1908435 -5.86492,0 -13.17121,0.9170534 -14.69696,5.29038402 -0.3847,1.09182598 -0.28928,2.05508368 0.28526,2.86164878 1.29774,1.8260714 5.01618,2.7541738 11.05888,2.7541738 2.60652,0 4.88559,-0.1797947 6.01358,-0.2852609 l 0.19385,-0.01808 -1.30979,3.8540352 -0.0773,0.010044 c -0.76438,0.085377 -2.8064,0.2882742 -5.31148,0.2882742 z"
   id="path4"
   style="stroke-width:1" />
                    <path
   fill="#fcca00"
   d="m 119.70203,9.6961696 c -2.45485,0 -5.1829,-0.1858213 -6.85429,-1.5699393 -2.00286,-1.6322146 -1.80699,-4.3924149 -1.77786,-4.7037913 l 3.54668,-14.670847 h 3.87914 c 0.18683,0 0.35859,0.08236 0.47209,0.224995 0.10848,0.138612 0.14866,0.316398 0.11451,0.488157 -0.0462,0.204906 -0.86784,3.4361888 -1.06371,4.2025764 l 8.36699,0.011049 -0.11049,0.1888347 c -0.60869,1.0365818 -2.18968,3.4422149 -3.66822,3.4422149 -0.0281,0 -5.36069,0 -5.36069,0 l -1.67139,6.8382258 c 0.0693,1.7326585 1.94761,2.5382191 5.89908,2.5382191 1.16816,0 2.20474,-0.079351 2.72002,-0.1285683 l 0.16975,-0.015066 -0.68905,3.0183413 -0.0854,0.017076 c -0.5645,0.080355 -1.7648,0.1185239 -3.88719,0.1185239 z"
   id="path5"
   style="stroke-width:1" />
                    <path
   fill="#fcca00"
   d="m 139.54976,9.6961696 c -4.09007,0 -9.46885,-0.6117037 -11.86846,-3.5265879 -1.1541,-1.4032023 -1.52072,-3.2513713 -1.08077,-5.49127199 1.52775,-7.58653331 12.43597,-8.71853691 18.80311,-8.71853691 2.34738,0 4.28695,0.1516704 5.23514,0.2410656 l 0.17879,0.016071 -1.43936,2.9841905 -0.0854,-0.00603 c -0.63581,-0.046204 -1.95866,-0.1215372 -3.64812,-0.1215372 -3.07962,0 -9.00983,0.5554552 -11.8082,2.0520704 -1.76882,0.9421645 -2.58342,2.02595492 -2.85261,2.44781961 h 14.06718 l -0.0532,0.16573256 c -0.22399,0.68201457 -0.8357,2.32326903 -1.71257,2.82247563 l -0.0322,0.014062 h -12.94421 c 0.0291,0.3364873 0.19285,1.2987405 1.07174,2.1223811 1.41525,1.3218428 4.62343,2.0229416 9.27399,2.0229416 1.76279,0 3.69031,-0.087386 5.72932,-0.2621588 l 0.2029,-0.015066 -1.10187,2.8616487 -0.0753,0.010044 c -0.8588,0.1145062 -3.14892,0.3806827 -5.85991,0.3806827 z"
   id="path6"
   style="stroke-width:1" />
                    <path
   fill="#fcca00"
   d="m 101.51263,9.6590054 c 0,0 1.59807,-6.5087696 2.35441,-9.79529631 0.35356,-1.52373509 0.20792,-2.73810269 -0.41684,-3.51553909 -0.64485,-0.7945118 -1.59103,-0.881898 -1.97071,-0.881898 -0.0733,0 -9.762159,0.00502 -10.865034,0.00502 l -2.343358,9.790274 c -0.66293,2.5472591 -2.585428,4.2738911 -4.896644,4.4014549 h -0.920066 l 4.342193,-17.8890716 h 14.531239 c 1.47552,0 4.19454,0.1807991 5.81269,1.391149 2.24794,1.6814321 1.39115,4.6425204 1.38211,4.6696403 -0.0141,0.064284 -1.65431,6.8854344 -1.74371,7.3354234 -0.80857,4.049901 -1.9466,4.4928589 -4.17646,4.4928589 z"
   id="path7"
   style="stroke-width:1" />
                    <path
   fill="#fcca00"
   d="M 73.305951,9.6630231 75.42331,1.0168059 H 64.291104 l 0.363608,-1.3650336 c 0.05524,-0.24608773 0.408807,-1.5197173 2.030977,-1.5468372 h 9.440729 l 1.655316,-6.834208 h -9.983127 c -0.05524,0 -5.755439,0.084373 -6.73979,4.5973207 L 57.915925,8.3743269 C 57.554327,9.388811 56.949654,9.61481 56.62522,9.6610142 l -3.25539,0.00201 3.504491,-14.8014239 c 0.177786,-0.7704052 0.718174,-3.1177809 3.595894,-4.7128312 2.42974,-1.2836741 6.65341,-1.3007501 6.8322,-1.3007501 H 83.088189 L 78.642539,7.8228895 C 78.31911,9.2542161 77.283532,9.6027567 77.082644,9.6600098 l -0.01908,0.00402 h -3.757609 z"
   id="path8"
   style="stroke-width:1" />
                </svg>
