<?xml version="1.0" standalone="no"?>
<!DOCTYPE svg PUBLIC "-//W3C//DTD SVG 20010904//EN"
 "http://www.w3.org/TR/2001/REC-SVG-20010904/DTD/svg10.dtd">
<svg version="1.0" xmlns="http://www.w3.org/2000/svg"
 width="900.000000pt" height="500.000000pt" viewBox="0 0 900.000000 500.000000"
 preserveAspectRatio="xMidYMid meet">

<g transform="translate(0.000000,500.000000) scale(0.100000,-0.100000)"
fill="#000000" stroke="none">
<path d="M1990 2505 l0 -625 125 0 125 0 0 165 0 165 125 0 c144 0 208 11 288
52 226 113 313 391 195 623 -36 69 -131 159 -206 193 -91 42 -168 52 -429 52
l-223 0 0 -625z m572 336 c103 -71 124 -210 46 -306 -51 -62 -93 -75 -240 -75
l-128 0 0 206 0 205 143 -3 c132 -3 146 -5 179 -27z"/>
<path d="M3487 3123 c-4 -3 -7 -285 -7 -625 l0 -618 460 0 460 0 0 125 0 125
-335 0 -335 0 0 90 0 90 250 0 250 0 0 125 0 125 -250 0 -250 0 0 155 0 155
333 2 332 3 0 125 0 125 -451 3 c-248 1 -454 -1 -457 -5z"/>
<path d="M4850 3123 c0 -3 152 -285 337 -625 l338 -618 36 0 c27 0 41 6 51 23
22 33 656 1190 664 1210 6 16 -6 17 -134 17 l-140 0 -218 -400 -217 -400 -22
37 c-11 21 -110 201 -219 401 l-198 362 -139 0 c-76 0 -139 -3 -139 -7z"/>
<path d="M6727 3123 c-4 -3 -7 -285 -7 -625 l0 -618 125 0 125 0 0 625 0 625
-118 0 c-65 0 -122 -3 -125 -7z"/>
<path d="M529 2508 c-184 -336 -335 -615 -337 -620 -2 -4 57 -8 130 -8 l135 0
183 338 c101 185 194 354 206 375 l21 38 136 -248 136 -248 -228 -3 -227 -2
-22 -43 c-11 -23 -41 -79 -67 -124 l-45 -83 499 0 499 0 -335 613 c-184 336
-338 615 -342 620 -4 4 -158 -268 -342 -605z"/>
<path d="M7789 2508 c-184 -336 -335 -615 -337 -620 -2 -4 57 -8 130 -8 l134
0 53 95 52 95 307 0 307 0 53 -95 53 -95 134 0 134 0 -18 33 c-11 17 -162 293
-336 612 -174 319 -320 583 -324 588 -4 4 -158 -268 -342 -605z m414 -15 c41
-76 80 -148 86 -160 l12 -23 -175 0 -174 0 86 160 c48 88 88 160 89 160 1 0
35 -62 76 -137z"/>
<path d="M802 2336 c-34 -63 -62 -117 -62 -120 0 -3 59 -6 131 -6 l131 0 -58
108 c-31 59 -62 113 -68 119 -9 10 -26 -13 -74 -101z"/>
</g>
</svg>
