<?xml version="1.0" standalone="no"?>
<!DOCTYPE svg PUBLIC "-//W3C//DTD SVG 20010904//EN"
 "http://www.w3.org/TR/2001/REC-SVG-20010904/DTD/svg10.dtd">
<svg version="1.0" xmlns="http://www.w3.org/2000/svg"
 width="2245.000000pt" height="2516.000000pt" viewBox="0 0 2245.000000 2516.000000"
 preserveAspectRatio="xMidYMid meet">

<g transform="translate(0.000000,2516.000000) scale(0.100000,-0.100000)"
fill="#000000" stroke="none">
<path d="M10957 24688 c-5662 -9386 -10955 -18163 -10953 -18165 4 -5 328 -33
546 -48 1749 -118 3406 57 4933 520 1595 483 3039 1282 4222 2334 182 161 558
540 697 701 63 74 131 150 150 167 l34 33 199 20 c428 43 592 52 1062 57 603
7 926 -9 1433 -73 1696 -211 3251 -876 4505 -1924 603 -505 1196 -1159 1482
-1636 48 -81 92 -148 97 -150 6 -2 701 -3 1543 -2 l1533 3 -273 455 c-151 250
-1239 2062 -2419 4025 -2137 3558 -8326 13857 -8444 14053 l-62 103 -285 -473z
m383 -4813 c51 -88 919 -1537 1931 -3220 1011 -1684 1840 -3067 1843 -3075 5
-11 -14 -23 -72 -44 -774 -287 -1682 -831 -2567 -1541 -516 -414 -967 -823
-1540 -1400 l-360 -362 -145 -16 c-1043 -115 -2014 -50 -3025 204 -473 118
-1011 307 -1447 509 -150 69 -157 73 -146 94 6 11 1180 1958 2607 4326 1428
2368 2615 4337 2637 4375 135 232 186 316 189 313 2 -2 44 -75 95 -163z"/>
<path d="M10868 5249 c-329 -32 -651 -153 -921 -346 -105 -76 -283 -247 -363
-348 -231 -296 -324 -605 -355 -1181 -14 -259 -6 -1519 10 -1674 26 -246 63
-431 117 -582 160 -446 574 -837 1069 -1008 413 -142 907 -142 1319 0 578 199
978 653 1135 1289 16 64 32 133 36 154 l6 37 -397 -2 -396 -3 -25 -85 c-28
-98 -104 -262 -160 -347 -51 -78 -174 -206 -248 -258 -175 -124 -377 -185
-615 -185 -365 0 -673 155 -861 432 -72 106 -130 258 -159 419 -48 260 -70
885 -52 1452 16 490 31 637 87 834 97 339 349 579 711 674 78 21 111 24 274
24 221 0 306 -17 465 -94 216 -104 362 -256 476 -495 26 -55 60 -143 75 -193
l28 -93 398 0 399 0 -7 38 c-18 103 -78 313 -119 418 -170 433 -476 769 -865
953 -308 144 -691 206 -1062 170z"/>
<path d="M20395 5250 c-451 -46 -873 -249 -1176 -567 -291 -305 -415 -626
-461 -1193 -17 -215 -17 -1507 0 -1720 48 -581 175 -902 482 -1211 397 -400
934 -595 1514 -550 486 37 853 197 1162 505 248 248 402 531 495 911 16 66 29
130 29 142 l0 23 -393 0 -393 0 -29 -97 c-115 -383 -381 -656 -730 -750 -92
-25 -115 -27 -290 -27 -174 0 -198 3 -287 26 -360 98 -619 354 -708 701 -26
103 -48 241 -62 397 -18 191 -18 1381 0 1580 35 386 98 581 246 765 192 240
470 365 811 365 293 0 517 -85 706 -267 95 -92 166 -187 223 -301 38 -75 106
-266 106 -296 0 -14 38 -16 401 -16 l401 0 -7 48 c-12 80 -63 267 -101 369
-240 644 -730 1045 -1404 1147 -128 20 -413 28 -535 16z"/>
<path d="M1889 5183 c-30 -79 -1879 -5126 -1879 -5129 0 -2 188 -4 418 -4
l417 0 175 515 175 515 1022 0 1021 0 12 -35 c51 -153 339 -987 342 -991 3 -2
191 -3 419 -2 l414 3 -944 2578 -945 2577 -318 0 -318 0 -11 -27z m740 -2293
l388 -1135 -790 -3 c-435 -1 -791 -1 -793 1 -1 1 178 517 399 1145 221 629
403 1140 405 1135 2 -4 178 -519 391 -1143z"/>
<path d="M4940 2630 l0 -2580 395 0 395 0 0 1085 0 1085 490 0 490 0 542
-1085 543 -1085 458 0 459 0 -55 102 c-150 282 -1120 2151 -1124 2166 -3 14
11 22 69 40 194 60 408 191 558 342 188 187 306 413 362 692 20 97 23 142 22
323 0 178 -4 226 -23 315 -66 311 -181 530 -386 736 -196 196 -413 318 -693
389 -216 55 -218 55 -1404 55 l-1098 0 0 -2580z m2135 1865 c202 -33 341 -101
470 -230 74 -73 99 -106 133 -175 63 -128 86 -236 85 -400 -1 -161 -21 -251
-85 -380 -33 -69 -59 -102 -132 -176 -78 -78 -106 -98 -186 -137 -109 -53
-208 -82 -330 -97 -50 -6 -334 -10 -692 -10 l-608 0 0 810 0 810 628 0 c503 0
645 -3 717 -15z"/>
<path d="M13000 4860 l0 -350 710 0 710 0 0 -2230 0 -2230 395 0 395 0 0 2230
0 2230 710 0 710 0 0 350 0 350 -1815 0 -1815 0 0 -350z"/>
<path d="M17230 2630 l0 -2580 395 0 395 0 0 2580 0 2580 -395 0 -395 0 0
-2580z"/>
</g>
</svg>
