<?xml version="1.0" encoding="UTF-8" standalone="no"?>
<!-- Created with Inkscape (http://www.inkscape.org/) -->

<svg
   version="1.0"
   width="237.9375"
   height="54.4375"
   id="svg2"
   sodipodi:docname="Logo_Enermax_Technology_Corporation.svg"
   inkscape:version="1.4 (86a8ad7, 2024-10-11)"
   xmlns:inkscape="http://www.inkscape.org/namespaces/inkscape"
   xmlns:sodipodi="http://sodipodi.sourceforge.net/DTD/sodipodi-0.dtd"
   xmlns="http://www.w3.org/2000/svg"
   xmlns:svg="http://www.w3.org/2000/svg">
  <defs
     id="defs2" />
  <sodipodi:namedview
     id="namedview2"
     pagecolor="#ffffff"
     bordercolor="#000000"
     borderopacity="0.25"
     inkscape:showpageshadow="2"
     inkscape:pageopacity="0.0"
     inkscape:pagecheckerboard="0"
     inkscape:deskcolor="#d1d1d1"
     inkscape:zoom="2.6338242"
     inkscape:cx="88.844198"
     inkscape:cy="2.8475705"
     inkscape:window-width="1920"
     inkscape:window-height="1001"
     inkscape:window-x="-9"
     inkscape:window-y="-9"
     inkscape:window-maximized="1"
     inkscape:current-layer="svg2" />
  <path
     d="m 27.40625,0 c -4.58008,0 -8.93653,1.14746 -12.75,3.125 v 6.90625 L 8.1875,7.90625 C 3.1582,12.833 0,19.7461 0,27.34375 0,28.96973 0.16699,30.5625 0.40625,32.125 l 6.375,2.0625 -3.875,5.375 c 3.94531,7.87109 11.60645,13.59082 20.625,14.875 l 3.90625,-5.25 3.8125,5.25 c 9.04296,-1.28418 16.66993,-7.00391 20.625,-14.875 l -3.9375,-5.375 6.40625,-2.0625 c 0.27345,-1.5625 0.43751,-3.15527 0.4375,-4.78125 0,-7.59765 -3.1582,-14.51074 -8.1875,-19.4375 l -6.46875,2.125 V 3.125 C 36.31152,1.14746 31.98632,0 27.40625,0 Z m -2.03125,4.5 0.78125,8.71875 c 0.41505,-0.03907 0.83497,-0.0625 1.25,-0.0625 0.41505,0 0.8037,0.02344 1.21875,0.0625 L 29.40625,4.5 c 1.38184,0.14649 2.65722,0.30176 4,0.6875 l -2.3125,8.46875 c 3.42773,0.93261 6.375,3.14942 8.25,6.09375 l 7.4375,-4.84375 c 0.74219,1.12793 1.37891,2.31738 1.90625,3.5625 L 40.5,21.9375 c 0.31739,0.76171 0.5449,1.55274 0.75,2.34375 l 8.6875,-1.96875 c 0.27833,1.34277 0.4922,2.61817 0.53125,4 l -8.90625,0.46875 v 0.5625 c 0,3.43262 -1.21386,6.56543 -3.25,9.03125 l 7.03125,5.6875 c -0.84472,1.0498 -1.73634,2.03028 -2.78125,2.875 L 36.625,38.125 C 36,38.64258 35.32618,39.11133 34.59375,39.53125 l 4.71875,7.8125 c -1.23047,0.76661 -2.30177,1.22461 -3.625,1.78125 l -3.28125,-8.5 c -1.55763,0.58594 -3.2373,0.90137 -5,0.90625 -1.7627,-0.0049 -3.47853,-0.32031 -5.03125,-0.90625 l -3.25,8.5 c -1.3379,-0.55665 -2.41602,-1.00488 -3.65625,-1.78125 l 4.6875,-7.8125 c -0.69335,-0.41992 -1.37501,-0.88867 -2,-1.40625 l -5.9375,6.8125 C 11.21289,44.06347 10.26269,43.11231 9.4375,42.0625 l 7.03125,-5.71875 c -2.0459,-2.43164 -3.25,-5.56738 -3.25,-9 v -0.5625 L 4.3125,26.3125 c 0.05372,-1.27441 0.23828,-2.76465 0.53125,-4 l 8.6875,1.96875 c 0.20508,-0.79101 0.4375,-1.58203 0.75,-2.34375 L 6.09375,18.46875 C 6.67968,17.07226 7.18456,16.1709 8,14.90625 L 15.4375,19.75 c 1.87011,-2.94434 4.82226,-5.16113 8.25,-6.09375 L 21.4375,5.1875 C 22.74121,4.79199 24.01758,4.64649 25.375,4.5 Z M 67.90625,5.1875 61.75,48.34375 H 88.71875 L 90.375,36.78125 h -17.75 l 0.8125,-5.375 h 14.625 l 1.3125,-9.3125 H 74.75 l 0.75,-5.375 H 93.21875 L 94.90625,5.1875 Z M 96.21875,17.5 91.8125,48.34375 H 98.75 l 2.1875,-15.4375 4.75,15.4375 h 6.90625 L 116.96875,17.5 h -6.90625 l -2.15625,15.40625 -4.75,-15.40625 z m 23.84375,0 -4.375,30.84375 h 19.25 l 1.125,-7.71875 h -12.75 L 123.96875,36 H 134.375 l 0.875,-6.15625 h -10.40625 l 0.65625,-4.625 h 12.71875 l 1.125,-7.71875 z m 21.59375,0 -4.40625,30.84375 h 6.9375 l 1.4375,-10 h 2.4375 c 0.77149,0 3.59376,0.31836 3.125,3.84375 -0.48828,3.68164 -0.8125,6.15625 -0.8125,6.15625 h 7.6875 c 0,0 -0.52441,-3.03321 0.125,-6.34375 0.63478,-3.30567 -0.10253,-4.83789 -0.625,-5.84375 -0.53222,-1.01074 -0.5869,-2.01074 -0.0937,-2.71875 0.49317,-0.70801 2.09376,-2.62402 2.09375,-6.90625 0,-4.18457 -1.5078,-9.03125 -5.84375,-9.03125 z m 22.84375,0 -4.4375,30.84375 h 6.96875 l 2.0625,-14.375 0.625,14.375 h 5.40625 l 4.75,-14.375 -2.0625,14.375 H 184.75 L 189.15625,17.5 h -9.25 l -5.4375,16.46875 -0.75,-16.46875 z m 35,0 -13.28125,30.84375 h 6.96875 l 1.96875,-4.625 h 8.15625 l 0.65625,4.625 h 6.9375 6.4375 L 222.25,41 h 0.0312 l 2.78125,7.34375 h 8.46875 L 227.6562,32.90625 237.9375,17.5 h -8.5 l -4.875,7.34375 L 221.75,17.5 h -8.46875 l 5.875,15.40625 -8.625,12.90625 L 206.4375,17.5 Z M 27.40625,18.0625 c -5.11719,0 -9.28124,4.14258 -9.28125,9.25 0,5.11718 4.16406,9.28125 9.28125,9.28125 5.10742,0 9.25001,-4.16406 9.25,-9.28125 0,-5.10743 -4.14258,-9.24999 -9.25,-9.25 z m 0,4.65625 c 2.55859,0 4.625,2.03516 4.625,4.59375 0,2.55859 -2.06641,4.65625 -4.625,4.65625 -2.5586,0 -4.65625,-2.09765 -4.65625,-4.65625 0,-2.5586 2.09765,-4.59375 4.65625,-4.59375 z m 120.1875,1.71875 h 2.6875 c 1.05958,0 2.40624,1.10645 2.40625,3.5625 0,2.16308 -1.26854,3.37501 -2.5625,3.375 h -3.5 z m 53.625,5.125 1.03125,7.21875 h -4.125 z"
     style="fill:#eb1923;fill-opacity:1;fill-rule:nonzero;stroke:none"
     id="path1" />
</svg>
