<?xml version="1.0" encoding="UTF-8" standalone="no"?>
<!-- Created with Inkscape (http://www.inkscape.org/) -->

<svg
   version="1.1"
   id="svg1"
   width="180.9744"
   height="39.253334"
   viewBox="0 0 180.9744 39.253334"
   xmlns="http://www.w3.org/2000/svg"
   xmlns:svg="http://www.w3.org/2000/svg">
  <g
     id="g1"
     transform="translate(-37.795467,-226.7724)">
    <g
       id="g87">
      <path
         id="path1"
         d="m 0,0 -9.844,-7.554 v 7.537 h -1.262 v -13.004 h 1.262 v 4.033 l 3.086,2.367 6.152,-6.4 H 1.015 L -5.825,-5.903 1.843,0 Z"
         style="fill:#040000;fill-opacity:1;fill-rule:nonzero;stroke:none"
         transform="matrix(1.3333333,0,0,-1.3333333,106.6224,235.39253)" />
      <path
         id="path2"
         d="m 0,0 c -0.499,0.461 -1.106,0.834 -1.806,1.107 -0.706,0.276 -1.499,0.415 -2.356,0.415 -0.821,0 -1.579,-0.144 -2.252,-0.428 -0.665,-0.281 -1.243,-0.66 -1.718,-1.128 -0.472,-0.462 -0.843,-1 -1.105,-1.599 -0.26,-0.595 -0.399,-1.219 -0.413,-1.862 0,-0.62 0.14,-1.234 0.417,-1.826 0.276,-0.593 0.67,-1.13 1.17,-1.598 0.502,-0.471 1.108,-0.854 1.799,-1.14 0.702,-0.289 1.472,-0.436 2.291,-0.436 0.439,0 0.902,0.05 1.376,0.15 0.476,0.1 0.933,0.248 1.359,0.439 0.435,0.195 0.83,0.445 1.175,0.742 0.352,0.303 0.625,0.653 0.812,1.04 l 0.177,0.365 -1.201,0.261 -0.147,-0.265 c -0.147,-0.262 -0.345,-0.497 -0.588,-0.698 -0.253,-0.208 -0.54,-0.387 -0.855,-0.533 -0.318,-0.147 -0.663,-0.262 -1.027,-0.341 -0.362,-0.078 -0.726,-0.118 -1.081,-0.118 -0.606,0 -1.171,0.102 -1.679,0.304 -0.517,0.206 -0.977,0.486 -1.366,0.834 -0.393,0.351 -0.714,0.762 -0.953,1.221 -0.18,0.345 -0.304,0.706 -0.371,1.078 H 1.6 v 0.545 C 1.585,-2.82 1.437,-2.188 1.162,-1.592 0.885,-0.994 0.494,-0.458 0,0 m -4.162,0.481 c 0.638,0 1.228,-0.098 1.753,-0.291 0.527,-0.195 0.988,-0.463 1.368,-0.798 0.385,-0.339 0.701,-0.745 0.939,-1.208 0.186,-0.36 0.312,-0.748 0.377,-1.158 H -8.35 c 0.053,0.34 0.155,0.682 0.304,1.018 0.2,0.453 0.483,0.865 0.844,1.226 0.355,0.356 0.797,0.651 1.313,0.878 0.504,0.22 1.085,0.333 1.727,0.333"
         style="fill:#040000;fill-opacity:1;fill-rule:nonzero;stroke:none"
         transform="matrix(1.3333333,0,0,-1.3333333,123.944,241.65827)"
         clip-path="none" />
      <path
         id="path4"
         d="m 0,0 -4.536,8.079 h -1.391 l 5.265,-9.361 c -0.383,-0.718 -0.684,-1.28 -0.9,-1.687 -0.231,-0.432 -0.406,-0.755 -0.523,-0.967 -0.117,-0.21 -0.192,-0.342 -0.226,-0.398 -0.01,-0.017 -0.019,-0.031 -0.016,-0.031 h 0.002 c -0.011,-0.008 -0.046,-0.032 -0.133,-0.056 -0.02,-0.006 -0.143,-0.034 -0.56,-0.034 h -0.42 v -1.041 h 0.42 c 0.449,0 0.798,0.041 1.067,0.127 0.304,0.098 0.539,0.256 0.706,0.479 L -1.086,-4.665 5.68,8.079 H 4.298 Z"
         style="fill:#040000;fill-opacity:1;fill-rule:nonzero;stroke:none"
         transform="matrix(1.3333333,0,0,-1.3333333,135.34307,250.586)"
         clip-path="none" />
      <path
         id="path6"
         d="M 0,0 C -0.066,-0.226 -0.21,-0.427 -0.442,-0.614 -0.701,-0.823 -1,-1.006 -1.331,-1.158 -1.662,-1.31 -2.02,-1.427 -2.397,-1.507 c -0.377,-0.079 -0.721,-0.119 -1.021,-0.119 -0.606,0 -1.181,0.108 -1.708,0.32 -0.537,0.217 -1.01,0.511 -1.407,0.875 -0.399,0.368 -0.721,0.795 -0.954,1.271 -0.23,0.469 -0.347,0.971 -0.347,1.492 0,0.469 0.099,0.949 0.293,1.426 0.195,0.475 0.476,0.907 0.836,1.284 0.356,0.373 0.801,0.682 1.323,0.918 0.51,0.231 1.106,0.348 1.774,0.348 0.756,0 1.449,-0.131 2.059,-0.388 0.601,-0.253 1.072,-0.651 1.441,-1.218 L 0.064,4.437 1.251,4.798 1.036,5.146 C 0.641,5.785 0.079,6.316 -0.635,6.724 -1.363,7.139 -2.363,7.35 -3.608,7.35 -4.414,7.35 -5.168,7.205 -5.848,6.922 -6.519,6.641 -7.104,6.263 -7.586,5.795 -8.066,5.331 -8.442,4.793 -8.703,4.195 -8.963,3.599 -9.096,2.972 -9.096,2.332 c 0,-0.62 0.14,-1.234 0.417,-1.826 0.277,-0.592 0.67,-1.13 1.17,-1.598 0.503,-0.471 1.108,-0.854 1.8,-1.14 0.701,-0.289 1.472,-0.436 2.291,-0.436 0.424,0 0.879,0.05 1.355,0.15 0.475,0.1 0.932,0.248 1.359,0.439 0.434,0.195 0.826,0.442 1.165,0.734 0.35,0.302 0.608,0.655 0.767,1.05 L 1.366,0.044 0.104,0.357 Z"
         style="fill:#040000;fill-opacity:1;fill-rule:nonzero;stroke:none"
         transform="matrix(1.3333333,0,0,-1.3333333,156.6256,249.42773)"
         clip-path="none" />
      <path
         id="path8"
         d="m 0,0 c -0.276,0.45 -0.676,0.826 -1.187,1.118 -0.525,0.3 -1.225,0.452 -2.08,0.452 -0.488,0 -0.98,-0.063 -1.462,-0.189 C -5.203,1.256 -5.66,1.08 -6.088,0.857 -6.516,0.634 -6.919,0.355 -7.287,0.026 -7.329,-0.011 -7.369,-0.048 -7.409,-0.087 V 5.129 H -8.671 V -8.273 h 1.262 v 5.995 c 0.116,0.343 0.302,0.681 0.553,1.005 0.265,0.341 0.586,0.649 0.954,0.915 0.365,0.265 0.781,0.482 1.237,0.646 0.443,0.16 0.914,0.241 1.398,0.241 0.56,0 1.01,-0.089 1.338,-0.265 0.341,-0.183 0.6,-0.421 0.791,-0.728 0.202,-0.321 0.339,-0.693 0.409,-1.104 0.075,-0.434 0.112,-0.885 0.112,-1.341 v -5.364 h 1.262 v 5.364 c 0,0.464 -0.04,0.955 -0.119,1.46 C 0.442,-0.919 0.265,-0.432 0,0"
         style="fill:#040000;fill-opacity:1;fill-rule:nonzero;stroke:none"
         transform="matrix(1.3333333,0,0,-1.3333333,174.0592,241.722)"
         clip-path="none" />
      <path
         id="path10"
         d="m 0,0 c -0.394,-0.229 -0.752,-0.505 -1.072,-0.825 v 1.504 h -1.262 v -9.704 h 1.262 v 5.993 c 0.128,0.37 0.304,0.716 0.522,1.03 0.221,0.318 0.497,0.599 0.818,0.832 0.321,0.234 0.695,0.424 1.111,0.564 0.416,0.141 0.886,0.223 1.397,0.244 l 0.399,0.017 V 0.679 H 2.755 C 1.703,0.679 0.777,0.451 0,0"
         style="fill:#040000;fill-opacity:1;fill-rule:nonzero;stroke:none"
         transform="matrix(1.3333333,0,0,-1.3333333,181.81573,240.71947)"
         clip-path="none" />
      <path
         id="path12"
         d="m 0,0 c -0.489,0.472 -1.083,0.861 -1.764,1.158 -0.696,0.303 -1.48,0.457 -2.33,0.457 -0.775,0 -1.515,-0.137 -2.2,-0.408 -0.678,-0.267 -1.278,-0.636 -1.781,-1.095 -0.502,-0.457 -0.903,-0.995 -1.194,-1.598 -0.292,-0.606 -0.44,-1.251 -0.44,-1.917 0,-0.63 0.137,-1.247 0.406,-1.833 0.269,-0.584 0.651,-1.116 1.137,-1.58 0.491,-0.467 1.086,-0.848 1.769,-1.133 0.691,-0.288 1.463,-0.441 2.295,-0.454 h 0.008 0.008 c 0.788,0.013 1.533,0.159 2.217,0.435 0.675,0.273 1.274,0.644 1.777,1.103 0.501,0.457 0.899,0.989 1.183,1.581 0.285,0.595 0.43,1.227 0.43,1.881 0,0.593 -0.133,1.196 -0.394,1.794 C 0.865,-1.011 0.486,-0.47 0,0 m -4.094,-7.361 c -0.632,0 -1.208,0.107 -1.713,0.318 -0.516,0.216 -0.973,0.51 -1.355,0.873 -0.386,0.366 -0.693,0.796 -0.913,1.275 -0.221,0.484 -0.347,0.991 -0.372,1.492 0,0.467 0.105,0.944 0.312,1.419 0.206,0.474 0.506,0.905 0.892,1.282 0.385,0.376 0.853,0.687 1.392,0.926 0.524,0.231 1.115,0.349 1.757,0.349 0.603,0 1.172,-0.11 1.692,-0.327 0.531,-0.222 0.998,-0.519 1.389,-0.884 0.392,-0.366 0.706,-0.796 0.932,-1.276 0.226,-0.478 0.34,-0.979 0.34,-1.489 0,-0.466 -0.105,-0.943 -0.312,-1.418 -0.206,-0.475 -0.507,-0.906 -0.893,-1.283 -0.384,-0.375 -0.851,-0.683 -1.388,-0.915 -0.524,-0.227 -1.117,-0.342 -1.76,-0.342"
         style="fill:#040000;fill-opacity:1;fill-rule:nonzero;stroke:none"
         transform="matrix(1.3333333,0,0,-1.3333333,201.0696,241.7812)"
         clip-path="none" />
      <path
         id="path14"
         d="M 0,0 C -0.053,0.53 -0.2,1.018 -0.435,1.451 -0.683,1.905 -1.058,2.284 -1.55,2.579 -2.056,2.883 -2.747,3.036 -3.605,3.036 -4.121,3.036 -4.644,2.97 -5.159,2.838 -5.666,2.709 -6.152,2.527 -6.602,2.298 -7.052,2.069 -7.47,1.787 -7.844,1.46 -7.89,1.419 -7.935,1.379 -7.979,1.337 v 1.56 h -1.262 v -9.705 h 1.262 v 5.991 c 0.128,0.341 0.33,0.681 0.6,1.011 0.285,0.347 0.626,0.659 1.014,0.926 0.387,0.265 0.824,0.481 1.298,0.639 0.466,0.156 0.958,0.235 1.462,0.235 0.554,0 0.985,-0.087 1.283,-0.258 0.312,-0.18 0.544,-0.415 0.709,-0.718 0.177,-0.323 0.293,-0.695 0.344,-1.108 0.055,-0.44 0.082,-0.895 0.082,-1.353 v -5.365 h 1.262 v 5.365 C 0.075,-0.986 0.05,-0.5 0,0"
         style="fill:#040000;fill-opacity:1;fill-rule:nonzero;stroke:none"
         transform="matrix(1.3333333,0,0,-1.3333333,218.66987,243.6764)"
         clip-path="none" />
    </g>
    <path
       id="path16"
       d="m 0,0 c 0,-8.13 -6.59,-14.72 -14.72,-14.72 -8.13,0 -14.72,6.59 -14.72,14.72 0,8.13 6.59,14.72 14.72,14.72 C -6.59,14.72 0,8.13 0,0"
       style="fill:#040000;fill-opacity:1;fill-rule:nonzero;stroke:none"
       transform="matrix(1.3333333,0,0,-1.3333333,77.0488,246.39907)"
       clip-path="none" />
    <g
       id="g88"
       style="display:inline">
      <path
         id="path18"
         d="m 42.167,91.838 h -1.796 v 13.896 h 1.796 z"
         style="fill:#ffffff;fill-opacity:1;fill-rule:nonzero;stroke:none"
         transform="matrix(1.3333333,0,0,-1.3333333,0,377.95333)" />
      <path
         id="path19"
         d="m 36.806,105.751 h 9.135 v -1.797 h -9.135 z"
         style="fill:#ffffff;fill-opacity:1;fill-rule:nonzero;stroke:none"
         transform="matrix(1.3333333,0,0,-1.3333333,0,377.95333)" />
      <path
         id="path20"
         d="m 0,0 -1.272,1.272 6.75,6.731 h 2.544 z"
         style="fill:#ffffff;fill-opacity:1;fill-rule:nonzero;stroke:none"
         transform="matrix(1.3333333,0,0,-1.3333333,55.583333,251.54627)" />
      <path
         id="path21"
         d="M 0,0 1.362,1.178 7.229,-5.855 4.694,-5.859 Z"
         style="fill:#ffffff;fill-opacity:1;fill-rule:nonzero;stroke:none"
         transform="matrix(1.3333333,0,0,-1.3333333,57.7396,247.72)" />
    </g>
    <path
       id="path22"
       d="m 0,0 c -5.897,0 -10.695,4.798 -10.695,10.696 0,5.898 4.798,10.696 10.695,10.696 4.44,0 8.255,-2.721 9.871,-6.582 h 2.008 C 10.169,19.731 5.496,23.279 0,23.279 c -6.938,0 -12.583,-5.645 -12.583,-12.583 0,-6.939 5.645,-12.583 12.583,-12.583 5.52,0 10.211,3.578 11.902,8.533 H 9.894 C 8.294,2.751 4.464,0 0,0"
       style="fill:#ffffff;fill-opacity:1;fill-rule:nonzero;stroke:none"
       transform="matrix(1.3333333,0,0,-1.3333333,57.8756,260.66013)"
       clip-path="none" />
  </g>
</svg>
