<?xml version="1.0" encoding="UTF-8" standalone="no"?>
<!-- Created with Inkscape (http://www.inkscape.org/) -->

<svg
   width="53.59795mm"
   height="7.43994mm"
   viewBox="0 0 53.59795 7.43994"
   version="1.1"
   id="svg1"
   sodipodi:docname="Patriot Memory logo alt 2.svg"
   inkscape:version="1.4 (86a8ad7, 2024-10-11)"
   xmlns:inkscape="http://www.inkscape.org/namespaces/inkscape"
   xmlns:sodipodi="http://sodipodi.sourceforge.net/DTD/sodipodi-0.dtd"
   xmlns="http://www.w3.org/2000/svg"
   xmlns:svg="http://www.w3.org/2000/svg">
  <sodipodi:namedview
     id="namedview1"
     pagecolor="#ffffff"
     bordercolor="#000000"
     borderopacity="0.25"
     inkscape:showpageshadow="2"
     inkscape:pageopacity="0.0"
     inkscape:pagecheckerboard="0"
     inkscape:deskcolor="#d1d1d1"
     inkscape:document-units="mm"
     inkscape:zoom="5.580303"
     inkscape:cx="103.93701"
     inkscape:cy="19.084985"
     inkscape:window-width="1920"
     inkscape:window-height="1001"
     inkscape:window-x="-9"
     inkscape:window-y="-9"
     inkscape:window-maximized="1"
     inkscape:current-layer="layer1" />
  <defs
     id="defs1">
    <clipPath
       clipPathUnits="userSpaceOnUse"
       id="clipPath264">
      <path
         d="M 0,0 H 595.275 V 841.89 H 0 Z"
         transform="translate(-541.10302,-40.720501)"
         id="path264" />
    </clipPath>
    <clipPath
       clipPathUnits="userSpaceOnUse"
       id="clipPath234">
      <path
         d="M 0,0 H 595.275 V 841.89 H 0 Z"
         transform="translate(-425.73341,-42.585826)"
         id="path234" />
    </clipPath>
    <clipPath
       clipPathUnits="userSpaceOnUse"
       id="clipPath236">
      <path
         d="M 0,0 H 595.275 V 841.89 H 0 Z"
         transform="translate(-429.59991,-36.511576)"
         id="path236" />
    </clipPath>
    <clipPath
       clipPathUnits="userSpaceOnUse"
       id="clipPath238">
      <path
         d="M 0,0 H 595.275 V 841.89 H 0 Z"
         transform="translate(-432.09771,-35.501476)"
         id="path238" />
    </clipPath>
    <clipPath
       clipPathUnits="userSpaceOnUse"
       id="clipPath240">
      <path
         d="M 0,0 H 595.275 V 841.89 H 0 Z"
         transform="translate(-422.05111,-43.275601)"
         id="path240" />
    </clipPath>
    <clipPath
       clipPathUnits="userSpaceOnUse"
       id="clipPath242">
      <path
         d="M 0,0 H 595.275 V 841.89 H 0 Z"
         transform="translate(-419.20781,-44.841301)"
         id="path242" />
    </clipPath>
    <clipPath
       clipPathUnits="userSpaceOnUse"
       id="clipPath244">
      <path
         d="M 0,0 H 595.275 V 841.89 H 0 Z"
         transform="translate(-420.76471,-38.199376)"
         id="path244" />
    </clipPath>
    <clipPath
       clipPathUnits="userSpaceOnUse"
       id="clipPath246">
      <path
         d="M 0,0 H 595.275 V 841.89 H 0 Z"
         transform="translate(-431.61541,-46.686001)"
         id="path246" />
    </clipPath>
    <clipPath
       clipPathUnits="userSpaceOnUse"
       id="clipPath248">
      <path
         d="M 0,0 H 595.275 V 841.89 H 0 Z"
         transform="translate(-437.82251,-41.335426)"
         id="path248" />
    </clipPath>
    <clipPath
       clipPathUnits="userSpaceOnUse"
       id="clipPath250">
      <path
         d="M 0,0 H 595.275 V 841.89 H 0 Z"
         id="path250" />
    </clipPath>
    <clipPath
       clipPathUnits="userSpaceOnUse"
       id="clipPath252">
      <path
         d="M 0,0 H 595.275 V 841.89 H 0 Z"
         id="path252" />
    </clipPath>
    <clipPath
       clipPathUnits="userSpaceOnUse"
       id="clipPath254">
      <path
         d="M 0,0 H 595.275 V 841.89 H 0 Z"
         id="path254" />
    </clipPath>
    <clipPath
       clipPathUnits="userSpaceOnUse"
       id="clipPath256">
      <path
         d="M 0,0 H 595.275 V 841.89 H 0 Z"
         id="path256" />
    </clipPath>
    <clipPath
       clipPathUnits="userSpaceOnUse"
       id="clipPath258">
      <path
         d="M 0,0 H 595.275 V 841.89 H 0 Z"
         transform="translate(-542.57992,-39.692026)"
         id="path258" />
    </clipPath>
    <clipPath
       clipPathUnits="userSpaceOnUse"
       id="clipPath260">
      <path
         d="M 0,0 H 595.275 V 841.89 H 0 Z"
         transform="translate(-508.89061,-39.823876)"
         id="path260" />
    </clipPath>
    <clipPath
       clipPathUnits="userSpaceOnUse"
       id="clipPath262">
      <path
         d="M 0,0 H 595.275 V 841.89 H 0 Z"
         transform="translate(-532.95211,-33.948076)"
         id="path262" />
    </clipPath>
    <clipPath
       clipPathUnits="userSpaceOnUse"
       id="clipPath266">
      <path
         d="M 0,0 H 595.275 V 841.89 H 0 Z"
         transform="translate(-560.47222,-45.214576)"
         id="path266" />
    </clipPath>
    <clipPath
       clipPathUnits="userSpaceOnUse"
       id="clipPath268">
      <path
         d="M 0,0 H 595.275 V 841.89 H 0 Z"
         transform="translate(-567.27202,-46.127101)"
         id="path268" />
    </clipPath>
  </defs>
  <g
     inkscape:label="Layer 1"
     inkscape:groupmode="layer"
     id="layer1"
     transform="translate(-201.08334,-150.5479)">
    <path
       id="path233"
       d="M 0,0 0.273,1.046 H 1.35 L 1.664,2.257 H 0.586 L 0.861,3.3 h -1.269 l -0.27,-1.043 h -1.08 l -0.31,-1.211 h 1.077 L -1.265,0 Z"
       style="fill:#002a5c;fill-opacity:1;fill-rule:nonzero;stroke:none"
       transform="matrix(0.35277776,0,0,-0.35277776,204.41588,151.99495)"
       clip-path="url(#clipPath234)" />
    <path
       id="path235"
       d="m 0,0 0.448,1.708 h -1.664 l 0.419,1.615 H -2.578 L -2.995,1.708 H -4.659 L -5.105,0 h 1.666 l -0.419,-1.618 h 1.777 L -1.658,0 Z"
       style="fill:#002a5c;fill-opacity:1;fill-rule:nonzero;stroke:none"
       transform="matrix(0.35277776,0,0,-0.35277776,205.7799,154.13781)"
       clip-path="url(#clipPath236)" />
    <path
       id="path237"
       d="m 0,0 h -1.776 l -0.419,-1.609 h -1.666 l -0.444,-1.715 1.664,0.002 -0.416,-1.612 h 1.776 l 0.419,1.612 h 1.665 l 0.44,1.713 h -1.659 z"
       style="fill:#002a5c;fill-opacity:1;fill-rule:nonzero;stroke:none"
       transform="matrix(0.35277776,0,0,-0.35277776,206.66107,154.49415)"
       clip-path="url(#clipPath238)" />
    <path
       id="path239"
       d="m 0,0 h -1.032 l -0.207,-0.789 -0.817,-0.002 -0.25,-0.99 h 0.809 l -0.2,-0.787 h 1.029 l 0.207,0.787 h 0.818 l 0.254,0.992 h -0.816 z"
       style="fill:#002a5c;fill-opacity:1;fill-rule:nonzero;stroke:none"
       transform="matrix(0.35277776,0,0,-0.35277776,203.11685,151.75161)"
       clip-path="url(#clipPath240)" />
    <path
       id="path241"
       d="M 0,0 H -0.813 L -0.61,0.79 H -1.643 L -1.85,0 h -0.81 l -0.261,-0.991 h 0.816 l -0.204,-0.792 h 1.038 l 0.203,0.792 h 0.815 z"
       style="fill:#002a5c;fill-opacity:1;fill-rule:nonzero;stroke:none"
       transform="matrix(0.35277776,0,0,-0.35277776,202.1138,151.19927)"
       clip-path="url(#clipPath242)" />
    <path
       id="path243"
       d="M 0,0 H -1.041 L -1.246,-0.788 H -2.059 L -2.316,-1.78 h 0.817 l -0.206,-0.789 h 1.035 l 0.2,0.789 h 0.821 l 0.256,0.992 H -0.21 Z"
       style="fill:#002a5c;fill-opacity:1;fill-rule:nonzero;stroke:none"
       transform="matrix(0.35277776,0,0,-0.35277776,202.66304,153.54239)"
       clip-path="url(#clipPath244)" />
    <path
       id="path245"
       d="m 0,0 h -1.411 l -0.426,-1.489 h 1.454 z"
       style="fill:#002a5c;fill-opacity:1;fill-rule:nonzero;stroke:none"
       transform="matrix(0.35277776,0,0,-0.35277776,206.49092,150.5485)"
       clip-path="url(#clipPath246)" />
    <path
       id="path247"
       d="m 0,0 h -1.264 l 0.315,1.223 h 1.267 z m 19.552,-1.613 c 0.262,1.866 -0.156,3.4 -1.245,4.558 -2.403,2.558 -7.18,2.412 -7.425,2.403 H -5.068 L -5.45,3.861 h 1.663 L -4.072,2.749 H -5.739 L -6.157,1.136 h -1.142 l 0.416,1.613 h -1.476 l -0.888,-3.117 h 3.104 l -0.506,-1.946 h 2.382 l -0.6,-2.304 h 2.409 l 0.592,2.304 h 2.374 l 0.505,1.946 9.582,0.005 1.651,2.307 0.214,-2.307 h 2.874 L 12.587,-1.717 12.8,-4.065 10.766,-2.615 7.999,-3.979 9.744,-1.546 9.181,-1.834 C 8.954,-1.951 8.698,-2.014 8.46,-2.014 H 1.856 L 1.653,-2.797 h -2.169 l -3.428,-12.785 h 6.869 l 2.07,7.041 h 7.154 c 3.197,0 6.767,2.379 7.403,6.928"
       style="fill:#002a5c;fill-opacity:1;fill-rule:nonzero;stroke:none"
       transform="matrix(0.35277776,0,0,-0.35277776,208.68065,152.43606)"
       clip-path="url(#clipPath248)" />
    <path
       id="path249"
       d="m 478.912,25.753 h 5.801 v 13.778 h -5.801 z"
       style="fill:#002a5c;fill-opacity:1;fill-rule:nonzero;stroke:none"
       transform="matrix(0.35277776,0,0,-0.35277776,54.226603,167.01828)"
       clip-path="url(#clipPath250)" />
    <path
       id="path251"
       d="m 512.56,25.753 h 5.801 V 39.43 h -5.801 z"
       style="fill:#002a5c;fill-opacity:1;fill-rule:nonzero;stroke:none"
       transform="matrix(0.35277776,0,0,-0.35277776,54.226603,167.01828)"
       clip-path="url(#clipPath252)" />
    <path
       id="path253"
       d="m 512.56,41.057 h 5.801 v 5.086 h -5.801 z"
       style="fill:#002a5c;fill-opacity:1;fill-rule:nonzero;stroke:none"
       transform="matrix(0.35277776,0,0,-0.35277776,54.226603,167.01828)"
       clip-path="url(#clipPath254)" />
    <path
       id="path255"
       d="m 547.852,25.753 h 5.799 v 3.757 h -5.799 z"
       style="fill:#002a5c;fill-opacity:1;fill-rule:nonzero;stroke:none"
       transform="matrix(0.35277776,0,0,-0.35277776,54.226603,167.01828)"
       clip-path="url(#clipPath256)" />
    <path
       id="path257"
       d="m 0,0 5.272,0.012 v -8.643 h 5.799 V 0.012 L 16.62,0 V 6.382 L 0,6.317 Z"
       style="fill:#002a5c;fill-opacity:1;fill-rule:nonzero;stroke:none"
       transform="matrix(0.35277776,0,0,-0.35277776,245.63673,153.01582)"
       clip-path="url(#clipPath258)" />
    <path
       id="path259"
       d="M 0,0 C 0,5.128 -2.436,6.107 -7.235,6.186 H -44.031 L -58.325,-14.07 h 6.14 l 3.224,5.093 h 7.002 v -5.093 h 5.801 v 13.777 h -5.801 v -4.953 h -4.601 l 4.858,6.518 33.609,-0.015 c 1.711,0 2.129,-0.418 2.129,-2.131 V -1.09 c 0.002,-1.17 0.003,-1.943 -0.404,-2.337 -0.291,-0.282 -0.823,-0.408 -1.725,-0.408 h -4.099 v 3.073 h -5.803 V -14.07 h 5.803 v 5.307 h 4.099 c 0.679,0 1.2,-0.179 1.551,-0.531 0.392,-0.395 0.575,-1.004 0.543,-1.817 v -2.959 h 5.802 v 4.184 c 0,2.163 -1.292,3.485 -3.558,3.665 C 0,-5.288 0,-3.279 0,0"
       style="fill:#002a5c;fill-opacity:1;fill-rule:nonzero;stroke:none"
       transform="matrix(0.35277776,0,0,-0.35277776,233.7519,152.9693)"
       clip-path="url(#clipPath260)" />
    <path
       id="path261"
       d="m 0,0 c -3.557,2.741 -7.234,5.575 -11.093,5.575 h -0.146 l -0.008,-0.141 c -0.102,-1.709 -0.154,-2.858 -0.154,-3.417 0,-1.437 0.236,-4.718 0.239,-4.755 0.302,-3.079 2.17,-4.889 5.56,-5.38 0.027,-0.003 2.743,-0.232 4.096,-0.232 1.355,0 4.07,0.229 4.102,0.232 2.645,0.314 4.374,1.499 5.139,3.521 L 7.801,-4.421 7.61,-4.397 C 5.327,-4.106 2.739,-2.111 0,0"
       style="fill:#002a5c;fill-opacity:1;fill-rule:nonzero;stroke:none"
       transform="matrix(0.35277776,0,0,-0.35277776,242.24026,155.04215)"
       clip-path="url(#clipPath262)" />
    <path
       id="path263"
       d="m 0,0 c -0.066,0.728 -0.253,1.421 -0.557,2.061 -0.898,1.9 -2.721,3.111 -5.003,3.322 -0.028,0.002 -2.771,0.23 -4.097,0.23 -1.396,0 -4.07,-0.228 -4.098,-0.23 -2.948,-0.271 -5.053,-2.13 -5.493,-4.851 l -0.026,-0.166 0.303,-0.01 c 5.593,-0.217 9.129,-3.338 12.249,-6.092 2.278,-2.01 4.245,-3.747 6.557,-3.904 L -0.01,-9.65 0,-9.5 c 0.003,0.033 0.239,3.447 0.239,4.745 0,1.411 -0.236,4.719 -0.239,4.752 z"
       style="fill:#002a5c;fill-opacity:1;fill-rule:nonzero;stroke:none"
       transform="matrix(0.35277776,0,0,-0.35277776,245.11572,152.65299)"
       clip-path="url(#clipPath264)" />
    <path
       id="path265"
       d="M 0,0 H 1.143 V -2.757 H 2.084 V 0 H 3.227 V 0.912 H 0 Z"
       style="fill:#002a5c;fill-opacity:1;fill-rule:nonzero;stroke:none"
       transform="matrix(0.35277776,0,0,-0.35277776,251.94874,151.06758)"
       clip-path="url(#clipPath266)" />
    <path
       id="path267"
       d="M 0,0 -1.063,-2.319 -2.121,0 h -0.946 v -3.669 h 0.936 v 1.726 l 0.762,-1.585 h 0.616 l 0.762,1.585 V -3.669 H 0.946 V 0 Z"
       style="fill:#002a5c;fill-opacity:1;fill-rule:nonzero;stroke:none"
       transform="matrix(0.35277776,0,0,-0.35277776,254.34756,150.74566)"
       clip-path="url(#clipPath268)" />
  </g>
</svg>
