<?xml version="1.0" encoding="UTF-8" standalone="no"?>
<!-- Created with Inkscape (http://www.inkscape.org/) -->

<svg
   width="132.29167mm"
   height="84.465027mm"
   viewBox="0 0 132.29167 84.465024"
   version="1.1"
   id="svg1"
   inkscape:version="1.4 (86a8ad7, 2024-10-11)"
   sodipodi:docname="Phanteks logo.svg"
   xmlns:inkscape="http://www.inkscape.org/namespaces/inkscape"
   xmlns:sodipodi="http://sodipodi.sourceforge.net/DTD/sodipodi-0.dtd"
   xmlns="http://www.w3.org/2000/svg"
   xmlns:svg="http://www.w3.org/2000/svg">
  <sodipodi:namedview
     id="namedview1"
     pagecolor="#ffffff"
     bordercolor="#000000"
     borderopacity="0.25"
     inkscape:showpageshadow="2"
     inkscape:pageopacity="0.0"
     inkscape:pagecheckerboard="0"
     inkscape:deskcolor="#d1d1d1"
     inkscape:document-units="mm"
     inkscape:zoom="1.9729351"
     inkscape:cx="204.77106"
     inkscape:cy="179.17468"
     inkscape:window-width="1920"
     inkscape:window-height="1001"
     inkscape:window-x="-9"
     inkscape:window-y="-9"
     inkscape:window-maximized="1"
     inkscape:current-layer="layer1" />
  <defs
     id="defs1" />
  <g
     inkscape:label="Layer 1"
     inkscape:groupmode="layer"
     id="layer1"
     transform="translate(-147.12553,-85.3337)">
    <polygon
       class="cls-2"
       points="343.58,381.23 464.89,311.2 464.89,202.91 424.35,226.31 424.34,282.28 303.14,352.25 303.14,483.07 464.89,389.69 464.89,337.36 343.58,407.39 "
       id="polygon1"
       style="fill:#00f7d6;stroke-width:0px"
       transform="matrix(0.15238693,0,0,0.15238693,140.19193,54.412868)" />
    <polygon
       class="cls-2"
       points="562.2,288.85 562.2,428.93 655.98,483.07 655.98,436.27 607.52,408.27 607.52,268.32 494.23,202.92 494.23,389.69 539.54,415.85 539.54,275.78 "
       id="polygon2"
       style="fill:#00f7d6;stroke-width:0px"
       transform="matrix(0.15238693,0,0,0.15238693,140.19193,54.412868)" />
    <polygon
       class="cls-2"
       points="532.9,524.39 411.58,454.34 317.81,508.48 358.35,531.88 406.82,503.92 528.01,573.89 641.31,508.48 479.56,415.09 434.24,441.26 555.56,511.3 "
       id="polygon3"
       style="fill:#00f7d6;stroke-width:0px"
       transform="matrix(0.15238693,0,0,0.15238693,140.19193,54.412868)" />
    <polygon
       class="cls-1"
       points="385.92,757.17 356.75,757.17 323.06,681.51 289.37,757.17 260.21,757.17 308.02,649.79 338.11,649.79 "
       id="polygon4"
       style="stroke-width:0px"
       transform="matrix(0.15238693,0,0,0.15238693,140.19193,54.412868)" />
    <polygon
       class="cls-1"
       points="493.17,757.17 467.22,757.17 423.62,696.68 424.24,757.17 395.22,757.17 395.22,649.71 421.17,649.71 464.77,710.5 464.15,649.71 493.17,649.71 "
       id="polygon5"
       style="stroke-width:0px"
       transform="matrix(0.15238693,0,0,0.15238693,140.19193,54.412868)" />
    <polygon
       class="cls-1"
       points="541.02,757.17 541.02,673.35 509.4,673.35 509.4,649.71 601.82,649.71 601.82,673.35 570.19,673.35 570.19,757.17 "
       id="polygon6"
       style="stroke-width:0px"
       transform="matrix(0.15238693,0,0,0.15238693,140.19193,54.412868)" />
    <rect
       class="cls-1"
       x="234.37466"
       y="153.42018"
       width="12.702974"
       height="3.6024268"
       id="rect6"
       style="stroke-width:0px" />
    <polygon
       class="cls-1"
       points="696.06,691.13 618.05,691.13 618.05,757.17 701.42,757.17 701.42,733.51 646.15,733.51 646.15,715.73 696.06,715.73 "
       id="polygon7"
       style="stroke-width:0px"
       transform="matrix(0.15238693,0,0,0.15238693,140.19193,54.412868)" />
    <rect
       class="cls-1"
       x="163.54828"
       y="153.43237"
       width="4.443603"
       height="3.5902359"
       id="rect7"
       style="stroke-width:0px" />
    <polygon
       class="cls-1"
       points="222.05,691.13 153.27,691.13 153.27,757.17 182.43,757.17 182.43,715.73 222.05,715.73 222.05,757.17 251.21,757.17 251.21,649.79 222.05,649.79 "
       id="polygon8"
       style="stroke-width:0px"
       transform="matrix(0.15238693,0,0,0.15238693,140.19193,54.412868)" />
    <polygon
       class="cls-1"
       points="779.29,757.17 816.75,757.17 769.46,702.83 812.91,649.71 777.61,649.71 746.28,689.01 746.28,649.71 717.58,649.71 717.58,692.65 717.58,757.17 746.28,757.17 746.28,718.18 "
       id="polygon9"
       style="stroke-width:0px"
       transform="matrix(0.15238693,0,0,0.15238693,140.19193,54.412868)" />
    <path
       class="cls-1"
       d="m 160.07994,154.77033 c -0.97375,-0.89909 -2.30104,-1.35015 -3.98186,-1.35015 l -8.97255,0.0122 v 3.58871 h 9.02435 c 0.4404,0 0.79089,0.12343 1.04538,0.3703 0.25601,0.24687 0.38402,0.61259 0.38402,1.02556 0,0.41297 -0.12801,0.70099 -0.38402,0.94785 -0.25601,0.24687 -0.60498,0.3703 -1.0469,0.3703 h -9.02283 c 0,0 0,10.06363 0,10.06363 h 4.4436 v -6.31493 h 4.52895 c 1.68235,0 3.00964,-0.44954 3.98186,-1.35015 0.97223,-0.9006 1.45835,-2.16542 1.45835,-3.71519 0,-1.54977 -0.48764,-2.74754 -1.45835,-3.64814 z"
       id="path9"
       style="stroke-width:0px" />
    <path
       class="cls-1"
       d="m 273.90079,169.79568 c 1.97798,0 3.1224,-0.44192 4.08092,-1.32882 0.95699,-0.88689 1.43549,-2.13951 1.43549,-3.6649 0,-1.5254 -0.4785,-2.85573 -1.43549,-3.74262 -0.95852,-0.88537 -2.26295,-1.32882 -4.24093,-1.32882 h -3.2367 c -0.44192,0 -0.79241,-0.12343 -1.04994,-0.3703 -0.25601,-0.24686 -0.38554,-0.53793 -0.38554,-0.9509 0,-0.41296 0.16762,-0.80307 0.41144,-1.03775 0.24382,-0.23468 0.57755,-0.35201 0.99661,-0.35201 h 8.14966 c 0,0 0,-3.6009 0,-3.6009 h -8.03232 c -1.73112,0 -3.0645,0.44192 -4.06111,1.36386 -0.99509,0.92194 -1.40501,2.08008 -1.40501,3.62833 0,1.54825 0.49678,2.7643 1.46292,3.65881 0.96613,0.89451 2.29037,1.40958 3.9712,1.40958 h 3.3647 c 0.4404,0 0.78632,0.12191 1.0408,0.36725 0.25449,0.24535 0.3825,0.54554 0.3825,0.95547 0,0.40992 -0.12801,0.77565 -0.3825,1.01947 -0.25448,0.24534 -0.60192,0.36725 -1.0408,0.36725 h -8.16794 v 3.607 h 8.14051 v 0 z"
       id="path10"
       style="stroke-width:0px" />
  </g>
</svg>
