<?xml version="1.0" standalone="no"?>
<!DOCTYPE svg PUBLIC "-//W3C//DTD SVG 20010904//EN"
 "http://www.w3.org/TR/2001/REC-SVG-20010904/DTD/svg10.dtd">
<svg version="1.0" xmlns="http://www.w3.org/2000/svg"
 width="373.000000pt" height="135.000000pt" viewBox="0 0 373.000000 135.000000"
 preserveAspectRatio="xMidYMid meet">

<g transform="translate(0.000000,135.000000) scale(0.100000,-0.100000)"
fill="#000000" stroke="none">
<path d="M1420 1293 c-26 -12 -82 -18 -225 -24 -155 -6 -208 -12 -287 -32
-203 -53 -383 -143 -483 -242 -75 -73 -108 -138 -113 -222 -4 -60 -3 -64 30
-97 81 -81 261 -65 388 35 69 55 102 122 108 221 5 92 -13 182 -35 174 -8 -3
-15 -6 -16 -6 -1 0 -1 -24 1 -52 3 -45 -3 -66 -37 -136 -101 -206 -297 -312
-381 -205 -27 34 -26 101 1 154 102 202 504 386 821 377 l100 -3 -73 -50
c-157 -107 -262 -246 -399 -527 -143 -294 -178 -338 -307 -385 -150 -54 -318
-37 -411 43 -34 29 -46 34 -55 25 -9 -10 -3 -21 30 -50 54 -48 136 -80 244
-94 119 -15 205 1 318 60 218 112 329 256 466 603 78 197 108 254 165 311 55
55 82 61 125 27 103 -81 49 -276 -100 -364 -39 -22 -51 -24 -103 -18 -48 5
-61 3 -76 -11 -25 -25 -3 -45 50 -45 39 0 44 -3 50 -26 5 -18 -1 -44 -16 -78
-77 -174 -75 -166 -75 -266 0 -106 18 -159 75 -217 75 -77 159 -87 352 -44 75
17 185 36 245 42 198 20 493 -8 788 -76 254 -59 331 -68 488 -63 152 6 251 33
342 94 98 65 192 192 178 243 -8 29 -17 26 -35 -12 -24 -50 -100 -129 -159
-164 -134 -80 -286 -83 -489 -10 -242 88 -380 115 -630 124 -235 8 -435 -21
-668 -99 -144 -47 -177 -46 -229 4 -36 35 -63 107 -63 166 0 20 9 84 21 145
26 134 21 167 -32 220 -21 22 -39 40 -39 42 0 1 19 8 43 15 67 20 174 77 218
117 120 108 101 232 -48 305 l-67 33 37 15 c38 16 50 40 20 40 -10 -1 -34 -8
-53 -17z"/>
<path d="M3619 993 c-10 -11 -10 -14 -1 -9 8 5 12 -1 12 -19 0 -15 -4 -24 -10
-20 -5 3 -10 2 -10 -3 0 -6 7 -12 15 -16 8 -3 14 -2 14 2 -4 24 2 34 14 24 10
-8 13 -5 15 14 1 19 -3 24 -21 25 -21 1 -21 1 3 9 22 7 23 8 4 9 -12 1 -28 -7
-35 -16z"/>
<path d="M3681 995 c1 -19 18 -51 18 -35 0 8 -4 22 -9 30 -5 8 -9 11 -9 5z"/>
<path d="M3670 930 c-9 -6 -10 -10 -3 -10 6 0 15 5 18 10 8 12 4 12 -15 0z"/>
<path d="M3253 893 c-60 -24 -74 -43 -32 -43 24 0 24 5 -11 -147 -50 -219 -62
-301 -47 -332 11 -23 19 -26 58 -25 37 0 55 7 88 33 29 23 39 37 32 44 -7 7
-16 5 -29 -6 -56 -51 -55 5 3 231 25 96 45 197 45 224 0 43 -2 48 -22 48 -13
-1 -51 -12 -85 -27z"/>
<path d="M3467 897 c-61 -23 -74 -40 -37 -45 17 -3 21 -9 16 -27 -17 -66 -76
-346 -81 -388 -14 -95 46 -125 137 -68 25 16 48 34 52 39 11 19 -15 25 -33 8
-54 -49 -53 3 4 235 25 100 45 202 45 226 0 38 -3 43 -22 42 -13 0 -49 -10
-81 -22z"/>
<path d="M3021 864 c-26 -34 -27 -68 -1 -94 27 -27 62 -25 90 5 26 28 31 75
10 99 -21 26 -75 20 -99 -10z"/>
<path d="M1563 690 c-67 -30 -129 -99 -148 -165 -33 -111 9 -185 103 -185 51
0 123 29 161 63 34 32 81 135 81 180 0 105 -92 155 -197 107z m65 -45 c27 -60
4 -212 -38 -250 -49 -44 -81 34 -61 145 20 112 71 166 99 105z"/>
<path d="M1864 691 c-49 -22 -74 -54 -74 -96 0 -36 17 -63 77 -126 65 -68 49
-120 -19 -61 -56 49 -76 56 -104 37 -24 -15 -31 -49 -16 -71 23 -35 116 -45
176 -20 51 21 76 54 76 99 0 48 -11 69 -67 130 -46 49 -53 82 -18 82 12 0 25
-11 33 -27 25 -53 69 -59 91 -12 31 69 -61 107 -155 65z"/>
<path d="M2153 685 c-54 -27 -86 -62 -121 -132 -85 -165 22 -266 194 -184 58
27 82 46 71 57 -2 2 -24 -5 -48 -16 -24 -11 -52 -20 -62 -20 -28 0 -67 45 -67
78 0 25 5 30 43 42 82 24 138 59 153 95 37 90 -54 134 -163 80z m71 -21 c3 -9
6 -24 6 -35 0 -23 -66 -99 -86 -99 -17 0 -17 -5 2 61 23 77 62 114 78 73z"/>
<path d="M2415 691 c-39 -23 -87 -80 -79 -93 4 -5 16 0 30 13 l24 22 0 -29
c-1 -16 -7 -58 -15 -94 -41 -185 -1 -220 117 -102 l68 69 0 -53 c0 -58 17 -84
53 -84 39 0 121 56 188 127 79 84 116 153 103 191 -22 62 -108 67 -129 8 -8
-23 -6 -30 8 -41 27 -19 20 -65 -20 -134 -40 -67 -68 -90 -86 -72 -7 7 -4 42
11 119 12 59 22 123 22 140 0 30 -2 32 -38 32 -60 0 -78 -19 -85 -90 -8 -70
-23 -103 -66 -144 -27 -26 -31 -27 -37 -12 -4 10 1 51 10 92 9 41 16 87 16
102 0 53 -40 67 -95 33z"/>
<path d="M3005 691 c-44 -27 -88 -78 -80 -91 5 -8 14 -5 31 11 13 12 27 20 30
16 4 -3 -3 -45 -15 -91 -23 -95 -27 -166 -9 -184 29 -29 111 -8 156 41 29 31
13 44 -21 17 -14 -11 -28 -20 -31 -20 -11 0 -6 66 9 117 31 104 36 154 20 180
-19 28 -50 29 -90 4z"/>
</g>
</svg>
