<svg xmlns="http://www.w3.org/2000/svg" viewBox="0 0 2412 557"><path d="M1434.06 0h116.75l.18 36.74a.77.76 0 0 1-.77.76q-54.6 0-107.97-.23-13.35-.06-25 2.73-6.1 1.46-10.94 5.37-4.55 3.68-6.92 9.54-3.47 8.58-2.04 17.73 1.22 7.8 5.69 12.56 4.84 5.16 12.71 7.05 12.88 3.1 23.25 3.31 16.5.35 33 .35 13.91-.01 27.75 1.34 7.95.77 15.62 2.77 8.35 2.18 14.72 5.67 17.11 9.38 25.41 27.81 9.73 21.6 6.74 45.53-3.98 31.84-31.05 47.16-16.51 9.34-36.93 10.65-19.36 1.24-38.76 1.21-49.25-.05-99.5-.05a.69.68 0 0 1-.69-.68l-.06-36.19a.88.88.1 0 1 .88-.88q56.99 0 114.37.13 15.5.04 26.69-4.69 9.8-4.15 13.56-15.44 3.23-9.71.28-22.15-3.9-16.48-20.71-19.18-9.1-1.46-18.32-1.66-19.25-.41-38.5-.32-19.2.1-38-3.71-12.19-2.46-22.69-9.07-13.69-8.61-20.32-22.56-3.95-8.29-5.36-19.16-2.6-19.99 5.12-38.19 9.95-23.46 32.51-34.45 7.8-3.8 18.96-6.19 14.95-3.2 30.34-3.61ZM1679.15 0h44.16l.19 237.31a.7.69 0 0 1-.7.69h-43.03a.71.7 0 0 1-.71-.7l.09-237.3ZM165.79 206.19q119.75.1 239.5.06l6.92-.08q29.7-.35 56.04 10.83 38.45 16.32 62.94 51.31 25.35 36.23 26.78 81.44.31 9.61.11 20-.28 15.24-3.14 28.69-9.84 46.28-44.03 78.6-7.37 6.96-15.47 12.66-38.22 26.87-85.93 26.19-9.45-.14-9.53-.14H17.27a.71.7 0 0 1-.71-.7l-.06-106.74a.81.81-90 0 1 .81-.81h390.78q11.01 0 16.19-1.44 12.98-3.62 21.33-15.18 6.75-9.34 7.62-20.88.56-7.52.16-15.02-.47-8.75-2.68-14.68-4.84-12.99-17.02-20.49-5.23-3.21-11.42-4.51-3.8-.8-12.1-.8H175.5q-14.44 0-21.5-.32-33.44-1.53-62.45-18.02-34.34-19.53-54.29-53.64-19.41-33.19-20.52-71.78-.24-8.37-.37-16.74-.83-55.63 32.48-98.07 6.2-7.9 13.41-14.82Q104.8.32 165.51.93q6.87.07 6.99.07h538.25q7.71 0 15.28 2.32 7.22 2.23 13.76 6.64 18.22 12.31 22.65 34.6 1.22 6.16 1.12 14.51-.06 5.26-.06 5.37.04 46.49-.06 92.61a.71.7 0 0 1-.71.7H655.68a.68.68 89.9 0 1-.68-.68v-47.13a.69.69.1 0 0-.69-.69H161.5q-10.56 0-19.37 4.79-8.05 4.37-13.65 12.19-5.77 8.04-6.98 17.52-.98 7.68-.56 18.52.45 11.61 2.9 18.16 4.41 11.76 15.1 19.13 5.85 4.04 12.97 5.65 4.31.98 13.88.98Z"/><path d="m764.06 407.44 47.13.06a.81.81 89.9 0 1 .81.81l-.06 106.74a.71.7 0 0 1-.71.7q-51.11 0-101.23-.07-17.39-.03-31.17-8.99-8.66-5.62-14.31-13.79-9.52-13.76-9.52-32.4 0-99.87.06-199.75.01-16.43 8.89-30.12 13.43-20.73 36.58-23.85 3.97-.53 19.97-.53h428.25q15.72 0 19.94-.84 12.4-2.46 20.87-12.1 10.08-11.45 10.47-26.82.22-8.36.08-16.74-.34-19.41-14.8-31.56-10.68-8.98-24.68-8.61-5.71.15-5.76.15-55.31-.4-110.62-.45-91.72-.08-183.23-.09a.52.52-90 0 1-.52-.52V1.87a.87.87-2.2 0 1 .87-.87h287.89q14.29 0 19.98.38 58.79 3.98 97.82 48.06 32.14 36.29 37 85 .69 6.88.69 19.13v12.79q0 7.6-.49 12.76-5.07 53.57-41.7 91.81-7.07 7.37-14.8 13.42-28.98 22.66-65.01 28.4-12.38 1.97-28.18 1.83l-8.63-.08q-190.94-.05-381.88.06a.5.5 0 0 0-.5.5v91.88a.5.5 0 0 0 .5.5ZM2035.19 87.19q15.41-17.02 39.01-22.9 31.03-7.73 62.47-1.67 13.71 2.65 26.02 9.18 16.53 8.77 26.53 23.84 5.12 7.72 8.68 17.96 5.15 14.87 5.7 30.65.37 10.42-.65 19.98-1.65 15.5-8.26 29.46-8.08 17.05-23.75 28.5-14.97 10.93-35.17 14.9-30.14 5.91-59.61-.8-10.65-2.42-18.98-6.17-37.01-16.66-43.68-58.87-1.65-10.45-1.24-21.78.39-10.9 2.05-19.88 4.47-24.29 20.88-42.4Zm37.98 105.9q8.47 7.15 19.4 9.31 13.69 2.7 27.13.52 11.19-1.82 18.73-6.53 13.36-8.35 17.38-25.13 5.08-21.21-.61-41.49-3.08-10.98-8.62-17.87-8.13-10.11-21.14-13.59-17.42-4.65-33.94-.56-19.56 4.85-27.98 23.66-4.86 10.86-5.52 24.34-.73 14.89 2.65 27.57 3.17 11.88 12.52 19.77Z"/><rect width="44.24" height="176.24" x="1592.76" y="61.76" rx=".57"/><rect width="44.5" height="176.24" x="1765.5" y="61.76" rx=".57"/><path d="M1863.4 86.15q13.96-14.7 32.6-19.9 13.65-3.8 30-4.09 34-.58 68.87-.41a.89.88.3 0 1 .88.88v32.99a.88.88.1 0 1-.88.88H1937q-13.35 0-23.7 2.47-17.23 4.11-23.35 20.72-2.18 5.92-3.2 12.15-2.48 15.14-1.06 30.42.91 9.83 4.41 19.05 4.66 12.3 15.21 17.13 5.89 2.69 13.83 3.85 4.73.69 14.25.79 30.41.33 61.67.16a.69.69-.3 0 1 .69.69v33.26a.81.81-89.9 0 1-.81.81q-29.19 0-57.19.04-17.44.02-34.75-2.04-35.74-4.26-52.19-35.31-7.92-14.96-10.3-33.19-3.47-26.49 4.74-51.25 5.58-16.84 18.15-30.1ZM2278.05 96.31a.55.54-89.5 0 0-.55.55v140.46a.68.68-90 0 1-.68.68h-42.91a.66.66-89.9 0 1-.66-.66V62.44a.69.69.3 0 1 .69-.69q42.81 0 85.56.07 6.63.01 13.25.34 9.44.47 18.56 2.56 10.41 2.37 17.5 6.31 11.72 6.52 18.59 17.99 4.42 7.37 6.9 18.65 2.24 10.16 2.68 20.57.02.43.02 20.02v89.05a.69.69.3 0 1-.69.69h-42.79a.77.77-89.6 0 1-.77-.78q.17-51.24-.2-101.4-.06-8.76-.77-13.1-1.16-7.07-3.84-12.66-3.76-7.83-12.94-10.81-8.83-2.87-21.25-2.76-17.91.15-35.7-.18ZM1394.56 432.07l-.06 82.05a.88.88.1 0 1-.88.88h-46.25a.87.87 89.9 0 1-.87-.87V277.87a.87.87-89.9 0 1 .87-.87q56.26 0 111.88-.02 19.38 0 34 2.52 10.61 1.83 20.65 7.12 9.16 4.82 16.17 11.63 13.63 13.24 18.18 32.25 5.37 22.44.34 44.8-2.33 10.34-6.74 18.76-15.66 29.86-51.79 35-17.11 2.44-30.56 2.42-32.22-.03-64.43.08a.51.51 0 0 0-.51.51Zm90.88-111.89q-2.76-1.6-5.89-2.44-12.42-3.34-25.3-3.23-29.5.24-59.06.24a.69.69-.1 0 0-.69.69v77.74a.82.82 90 0 0 .82.82q31.18 0 61.18.02 11.52.01 22.56-3.2 9.44-2.73 14.19-10.07 4.19-6.48 5.73-14.06 1.24-6.11 1.28-12.28.04-7.1-.92-12.28-1.89-10.24-9.05-17.96-2.34-2.54-4.85-3.99ZM1597.16 494.09q-9.84-8.63-15.58-20.41-7.1-14.58-8.58-31.68-1.44-16.74.95-32.01 2.71-17.34 11.59-32.44 12.05-20.47 33.02-30.24 15.38-7.16 33.43-9.19 18.01-2.02 36.01.12 16.49 1.96 31.46 9.09 22.52 10.74 33.82 31.89 4.35 8.14 6.99 18.68 4.98 19.94 2.98 41.35-1.55 16.63-8.08 30.71-9.99 21.54-30.49 33.47-10.59 6.15-22.48 9.13-34.04 8.52-68.21.47-20.81-4.9-36.83-18.94Zm35.72-24.21q7.17 6.23 15.87 8.62 17.27 4.74 35.27.84 19.21-4.17 27.7-19.85 4.1-7.58 5.73-19.05 2.29-16.17-1.51-32.13-5.31-22.27-24.53-30.7-8.45-3.71-19.22-4.47-10.26-.71-19.94 1.61-16.46 3.95-25.14 17.18-4.77 7.28-7.24 18.5-4.39 19.98 1.08 40.33 3.06 11.41 11.93 19.12ZM1808.49 499.25q-10.21-9-14.05-22.44-3.36-11.73-3.37-23.31-.07-56.62-.07-113.81a.69.69.3 0 1 .69-.69h43.04a.71.7 0 0 1 .71.7q.11 49.83.06 100.05-.01 10.95.49 18.47.49 7.51 2.42 11.25 2.92 5.65 9.09 8.03 6.03 2.33 15.07 2.51 15.93.33 31.5.18a.69.69-.4 0 0 .68-.69V339.87a.87.87-89.9 0 1 .87-.87h42.61a.71.7 0 0 1 .71.7l.06 139.87a.68.67 90 0 0 .67.68l55.88-.06a.71.7 90 0 0 .7-.71V339.87a.87.87-89.9 0 1 .87-.87h42.81a.82.82-89.6 0 1 .82.82v174.36a.82.82-90 0 1-.82.82h-163.02l-9.31.09q-17.19.16-30.54-2.15-16.25-2.82-28.57-13.69ZM2125.57 442.81q.42 13.87 7.49 23.38 7.42 9.96 19.7 12.26 9.78 1.82 19.74 1.81 29.25-.01 59.48-.01a.71.7 0 0 1 .71.7l.06 33.2a.85.85-90 0 1-.85.85h-59.15q-12.19 0-21.54-.5-11.85-.63-19.77-2.69-27.97-7.27-41.7-32.51-4.51-8.29-7.22-18.59-3.7-14.07-3.77-29.46-.06-13.98 2.71-26.83 2.22-10.3 6.25-18.96 13.15-28.34 43.1-39.4Q2149.93 339 2173 339h58.87a.88.88-.1 0 1 .88.88v33.18a.69.69.3 0 1-.69.69H2182q-10.47 0-17.26.57-31.03 2.63-38.22 32.61a.46.45-83 0 0 .44.57h104.98a.81.81 89.9 0 1 .81.81v33.25a.69.69.3 0 1-.69.69l-106.01.06a.49.48 89.4 0 0-.48.5ZM2332.19 375.31q-6.72-.11-14.08-.06a.87.87-.3 0 0-.86.87v137.97a.91.91 89.9 0 1-.91.91h-42.82a.71.7 0 0 1-.71-.7l-.06-174.56a.68.68-90 0 1 .68-.68q26.85-.11 54.07-.05 9.4.02 18.76.9 7.77.72 15.19 2.86 8.23 2.37 14.13 6.04 16.05 9.96 19.67 29.69 2.02 11.04 1.58 23.56a.53.53-88.9 0 1-.53.51h-41.12a.51.49 90 0 1-.49-.51q-.05-6.7-1.88-14.37-.96-4.08-3.51-6.8-2.08-2.22-6.33-3.63-5.63-1.87-10.78-1.95Z"/></svg>