<?xml version="1.0" standalone="no"?>
<!DOCTYPE svg PUBLIC "-//W3C//DTD SVG 20010904//EN"
 "http://www.w3.org/TR/2001/REC-SVG-20010904/DTD/svg10.dtd">
<svg version="1.0" xmlns="http://www.w3.org/2000/svg"
 width="3840.000000pt" height="2160.000000pt" viewBox="0 0 3840.000000 2160.000000"
 preserveAspectRatio="xMidYMid meet">

<g transform="translate(0.000000,2160.000000) scale(0.100000,-0.100000)"
fill="#000000" stroke="none">
<path d="M4118 15445 c-119 -50 -186 -82 -198 -95 -3 -3 -126 -75 -275 -160
-148 -85 -293 -169 -322 -187 -29 -18 -54 -33 -57 -33 -3 0 -29 -14 -58 -32
-29 -17 -82 -48 -118 -68 -36 -20 -137 -79 -225 -130 -88 -51 -263 -153 -390
-225 -126 -73 -315 -182 -420 -242 -369 -214 -451 -261 -585 -338 -180 -103
-173 -99 -350 -202 -85 -50 -258 -150 -385 -223 -240 -138 -333 -191 -425
-245 -30 -17 -97 -56 -148 -85 -51 -29 -94 -56 -97 -60 -2 -3 -11 -74 -19
-156 -28 -269 -39 -890 -39 -2189 0 -1490 14 -2132 54 -2331 11 -59 26 -72
239 -203 74 -46 151 -94 170 -106 19 -12 46 -29 60 -37 37 -22 413 -243 495
-290 39 -23 97 -57 130 -76 53 -32 107 -63 240 -137 22 -12 83 -47 135 -77 97
-56 133 -77 275 -156 44 -24 141 -79 215 -122 74 -42 216 -122 315 -177 99
-56 254 -142 345 -193 161 -91 455 -254 635 -353 50 -27 128 -70 175 -95 47
-24 103 -55 125 -67 182 -102 545 -282 599 -297 41 -11 50 -9 113 17 80 33
339 162 503 250 229 123 626 338 670 363 25 14 88 48 140 77 541 298 662 366
855 478 66 38 136 80 155 92 38 24 253 152 285 169 29 16 313 185 355 211 19
12 91 55 160 95 144 85 402 238 540 320 52 31 177 105 276 164 209 123 187 89
204 316 18 251 20 372 26 1659 8 1625 -9 2660 -46 2825 -5 22 -19 48 -32 58
-120 96 -555 360 -1313 795 -71 41 -137 78 -145 83 -8 6 -40 24 -70 41 -30 17
-143 82 -250 144 -107 62 -224 128 -260 148 -36 19 -128 70 -205 112 -77 43
-228 126 -335 185 -107 59 -262 144 -345 190 -82 45 -179 98 -215 118 -127 68
-576 315 -662 364 -76 43 -351 168 -367 168 -3 0 -63 -25 -133 -55z m367 -270
c236 -117 521 -269 845 -450 85 -48 469 -260 610 -338 238 -131 998 -565 1280
-732 363 -214 474 -280 635 -378 243 -149 380 -243 393 -272 39 -85 52 -517
59 -1945 7 -1548 -7 -2291 -48 -2497 -10 -49 -15 -55 -77 -101 -72 -53 -318
-204 -527 -324 -71 -42 -146 -84 -165 -95 -100 -58 -699 -398 -785 -445 -55
-31 -174 -97 -265 -148 -485 -273 -1106 -618 -1325 -736 -49 -26 -121 -65
-160 -86 -182 -99 -558 -290 -624 -318 -53 -23 -83 -30 -105 -26 -93 18 -808
397 -1941 1028 -127 71 -962 552 -1153 664 -307 181 -384 227 -522 312 -184
113 -316 206 -329 230 -15 27 -29 184 -43 462 -18 354 -18 3218 0 3575 14 281
28 421 45 448 12 17 69 54 447 281 96 58 245 149 330 201 85 52 173 105 195
118 22 13 166 100 320 194 722 438 662 403 1595 928 158 89 257 144 320 177
62 33 117 63 290 158 107 58 411 207 435 213 41 11 85 -5 270 -98z"/>
<path d="M4224 14987 c-12 -34 -106 -291 -208 -571 -102 -280 -186 -514 -186
-520 1 -6 69 -49 152 -96 83 -47 157 -91 164 -98 12 -11 14 -65 14 -288 -1
-160 -5 -274 -10 -274 -9 0 -240 135 -398 231 -35 22 -67 39 -71 39 -8 0 -46
-99 -40 -104 2 -2 49 -28 104 -58 55 -31 120 -67 145 -82 25 -14 69 -39 98
-53 l52 -27 0 -264 0 -264 -32 20 c-30 18 -277 161 -481 279 -43 25 -79 44
-80 42 -6 -11 -50 -137 -54 -154 -3 -15 5 -25 34 -40 21 -11 168 -93 328 -182
l290 -162 3 -134 3 -135 -108 -59 c-60 -33 -220 -125 -358 -203 -137 -78 -279
-159 -314 -178 l-65 -36 -113 59 -113 59 -2 380 -3 381 -75 12 c-41 6 -83 12
-92 12 -17 1 -18 -21 -18 -329 0 -257 -3 -330 -12 -330 -7 0 -28 9 -45 20 -18
11 -115 65 -215 121 -101 56 -184 103 -186 104 -2 2 -3 106 -2 232 l1 230 -39
11 c-78 23 -72 45 -72 -273 0 -157 -2 -285 -5 -285 -3 0 -85 46 -183 101 -97
56 -208 119 -247 140 l-70 38 -3 205 -2 205 -53 10 c-53 11 -339 59 -632 106
-88 14 -182 30 -210 35 -27 6 -108 19 -180 30 -71 12 -139 23 -149 27 -13 3
-1 -16 35 -59 30 -36 123 -148 208 -249 85 -101 157 -186 161 -189 3 -3 64
-75 135 -160 71 -85 131 -157 134 -160 6 -5 112 -131 118 -139 1 -2 80 42 176
98 96 55 180 101 188 101 8 0 64 -28 125 -63 61 -34 168 -93 237 -132 69 -38
125 -74 124 -78 -2 -8 -186 -119 -394 -239 -51 -29 -93 -57 -93 -63 0 -6 15
-25 33 -42 l32 -31 80 45 c44 25 109 61 145 80 36 20 92 51 125 70 l59 35 51
-26 c135 -70 397 -223 395 -232 -1 -10 -106 -71 -385 -227 -99 -55 -184 -103
-189 -108 -8 -7 84 -119 105 -127 11 -4 57 20 254 130 366 206 406 228 417
228 6 0 36 -15 67 -32 31 -18 79 -45 106 -60 l50 -26 0 -487 0 -487 -105 -59
c-58 -32 -111 -58 -118 -59 -11 0 -236 125 -492 273 -112 65 -170 97 -174 97
-6 0 -116 -131 -116 -138 0 -7 29 -24 378 -217 171 -95 210 -121 200 -130 -7
-7 -109 -67 -226 -134 l-213 -122 -203 116 c-111 63 -207 115 -212 115 -5 0
-23 -18 -41 -39 l-32 -38 167 -94 c92 -51 204 -113 250 -138 45 -25 81 -49 79
-54 -1 -5 -34 -25 -72 -46 -39 -21 -147 -81 -242 -135 l-171 -97 -182 97
c-180 96 -183 97 -199 77 -9 -11 -93 -112 -188 -224 -94 -112 -215 -256 -268
-319 -53 -63 -116 -137 -140 -165 -138 -161 -185 -220 -176 -223 8 -3 381 62
1039 180 l182 33 0 200 0 200 37 20 c21 11 100 55 176 98 77 42 140 77 142 77
1 0 34 18 71 40 38 22 72 40 76 40 5 0 8 -127 8 -281 l0 -282 46 7 c25 3 50 8
55 12 5 3 9 106 9 234 l0 230 33 20 c119 76 413 246 420 243 4 -2 7 -155 7
-339 0 -260 3 -334 13 -334 6 0 49 5 95 12 l82 11 0 377 0 377 105 63 c58 34
111 63 118 64 6 0 198 -105 424 -234 l413 -235 0 -130 0 -130 -112 -67 c-62
-36 -205 -120 -317 -187 -112 -66 -208 -122 -214 -124 -12 -4 43 -167 56 -167
4 0 136 74 292 165 156 91 286 165 290 165 3 0 4 -118 3 -262 l-3 -263 -180
-102 c-241 -136 -222 -119 -200 -176 10 -26 21 -47 25 -47 4 0 81 45 171 100
253 154 298 179 303 172 2 -4 4 -127 5 -273 2 -221 0 -269 -12 -281 -8 -8 -81
-54 -162 -103 -81 -49 -149 -94 -152 -101 -2 -7 25 -93 62 -191 36 -98 93
-252 126 -343 33 -91 67 -181 74 -200 39 -98 145 -392 145 -400 0 -6 4 -10 8
-10 4 0 25 48 47 108 21 59 53 145 71 192 17 47 44 119 59 160 14 41 33 91 40
110 44 110 205 553 205 563 0 7 -72 57 -160 112 -121 75 -160 104 -160 120 0
11 -1 136 -1 277 -1 142 2 258 5 258 12 1 71 -33 267 -152 108 -65 201 -118
206 -118 11 0 36 88 28 100 -3 4 -90 57 -195 116 l-190 109 0 262 c0 145 2
263 5 263 3 0 40 -20 82 -44 43 -24 101 -56 128 -71 28 -16 125 -70 216 -122
91 -51 170 -93 175 -93 13 0 70 163 58 167 -5 2 -156 87 -337 190 l-327 187 0
131 0 132 153 84 c83 46 163 90 177 97 14 7 84 46 155 86 394 222 364 207 394
192 15 -8 66 -38 112 -66 l84 -51 5 -376 5 -377 28 -7 c15 -4 57 -11 92 -14
l65 -7 2 339 3 340 170 -98 c94 -54 195 -114 226 -133 l56 -34 7 -71 c4 -39 6
-143 5 -233 -2 -178 -3 -176 64 -177 l27 -1 0 274 c0 151 4 277 8 280 5 3 51
-19 103 -48 52 -29 160 -90 242 -136 l147 -82 0 -202 0 -201 273 -48 c149 -26
362 -63 472 -82 421 -75 488 -86 497 -83 8 3 -27 48 -111 143 -14 17 -49 57
-77 90 -27 33 -102 121 -165 195 -63 74 -182 214 -264 310 -81 96 -156 183
-166 194 -17 18 -19 18 -81 -16 -34 -20 -116 -63 -181 -97 l-117 -62 -93 54
c-50 29 -158 91 -239 136 -82 46 -148 87 -148 91 0 4 24 20 53 35 44 24 144
80 395 222 l42 24 -32 39 c-17 22 -35 40 -40 40 -4 0 -50 -24 -101 -54 -50
-29 -140 -81 -198 -115 l-106 -62 -162 93 c-89 51 -186 107 -216 123 -84 47
-85 50 -25 82 28 15 88 49 133 74 266 148 365 203 385 216 l23 14 -58 69 c-31
39 -58 70 -60 70 -2 0 -92 -50 -201 -112 -108 -61 -231 -130 -272 -153 -41
-23 -99 -56 -128 -74 -29 -17 -59 -31 -67 -31 -8 0 -38 14 -67 30 -29 17 -79
44 -110 60 l-58 30 0 484 0 484 43 22 c81 43 152 83 161 91 19 17 42 8 176
-67 74 -42 162 -91 195 -108 33 -18 103 -57 155 -86 52 -30 112 -62 134 -73
l39 -19 53 53 c30 29 54 59 54 65 0 6 -87 61 -192 122 -353 202 -373 214 -381
222 -7 6 427 260 445 260 5 0 216 -119 374 -210 l32 -18 37 38 37 38 -246 147
c-135 81 -246 150 -246 154 1 7 454 265 475 269 9 2 95 -42 192 -98 168 -96
178 -100 193 -83 9 10 93 108 186 218 92 110 171 202 174 205 7 7 99 115 200
235 47 55 93 109 103 120 32 34 127 152 127 157 0 2 -46 -3 -102 -13 -57 -10
-314 -52 -573 -94 -258 -42 -494 -81 -522 -86 l-53 -10 -2 -206 -3 -205 -145
-84 c-80 -46 -166 -95 -192 -109 -26 -14 -68 -38 -94 -55 -26 -16 -51 -27 -55
-24 -5 3 -9 131 -9 286 l0 280 -37 -7 c-21 -3 -41 -10 -45 -14 -4 -3 -8 -109
-8 -233 l-1 -227 -62 -34 c-34 -19 -138 -76 -230 -127 -92 -51 -170 -90 -173
-87 -3 2 -5 151 -4 331 l1 326 -23 -1 c-13 0 -54 -6 -93 -13 l-70 -12 -2 -370
c-2 -203 -3 -374 -3 -381 0 -11 -208 -123 -228 -123 -5 0 -54 25 -108 56 -55
31 -137 78 -184 103 -47 26 -173 96 -280 156 -107 60 -213 119 -235 131 l-40
22 0 138 0 138 310 178 c171 97 315 179 320 181 9 3 -40 177 -50 177 -2 0 -38
-20 -79 -45 -42 -25 -79 -45 -81 -45 -3 0 -26 -13 -52 -28 -27 -16 -111 -64
-188 -107 -77 -43 -152 -87 -168 -97 -21 -15 -28 -17 -32 -6 -3 7 -4 125 -3
262 l3 248 125 70 c69 39 154 86 190 105 93 51 95 53 80 99 -7 22 -16 43 -21
48 -4 5 -55 -20 -116 -57 -185 -111 -356 -208 -360 -203 -6 6 -4 546 2 556 3
4 74 48 158 96 83 48 154 89 156 91 7 5 -116 355 -229 653 -16 41 -63 170
-106 285 -42 116 -79 213 -83 217 -3 4 -16 -21 -27 -55z m201 -3112 c82 -47
150 -85 151 -85 1 0 146 -81 321 -181 175 -100 342 -194 371 -211 l52 -29 0
-594 0 -594 -192 -109 c-106 -60 -209 -119 -228 -129 -19 -11 -151 -86 -292
-166 -141 -81 -277 -156 -301 -168 l-45 -22 -68 38 c-38 21 -87 48 -109 60
-22 11 -141 79 -265 149 -292 166 -332 189 -351 201 -9 6 -40 23 -70 39 -30
16 -84 46 -121 68 l-68 40 0 593 0 593 173 97 c94 54 307 174 472 268 165 93
323 183 350 198 28 16 55 29 60 29 6 0 78 -38 160 -85z"/>
<path d="M37615 12394 c-244 -38 -440 -222 -490 -461 -29 -137 -13 -276 47
-398 35 -73 138 -187 214 -238 112 -75 304 -106 449 -73 87 21 207 79 249 121
162 165 220 346 185 578 -30 202 -198 392 -399 451 -56 17 -202 28 -255 20z"/>
<path d="M11741 12294 c-320 -41 -590 -156 -759 -323 -239 -237 -306 -599
-163 -880 92 -179 312 -425 532 -593 17 -12 43 -33 57 -44 15 -12 72 -56 127
-99 368 -287 555 -544 555 -761 0 -240 -128 -389 -390 -454 -120 -30 -380 -38
-507 -16 -201 35 -337 103 -467 232 -88 89 -146 171 -185 263 -35 83 -61 212
-61 306 l0 62 -120 13 c-66 7 -122 11 -124 9 -1 -2 -22 -80 -44 -174 -23 -93
-78 -318 -122 -498 -44 -180 -80 -330 -80 -333 0 -2 60 -4 133 -4 l133 0 79
128 c43 70 80 129 81 131 2 2 36 -21 76 -51 140 -104 225 -149 393 -208 211
-74 363 -95 675 -94 255 0 340 9 510 55 507 135 809 467 810 888 0 338 -218
637 -755 1036 -186 138 -261 201 -380 320 -187 186 -267 320 -273 456 -13 273
166 411 553 426 227 8 353 -20 497 -114 180 -118 276 -299 294 -552 l7 -99
109 -12 c60 -6 112 -9 116 -5 4 3 16 41 28 83 12 42 59 208 104 367 46 160 93
327 105 371 13 45 26 91 30 103 6 21 4 21 -114 21 l-121 0 -27 -38 c-16 -21
-50 -73 -78 -115 -27 -42 -54 -76 -58 -77 -5 0 -27 13 -51 29 -64 45 -281 147
-371 175 -247 78 -507 102 -754 70z"/>
<path d="M25485 12299 c-541 -53 -931 -335 -1015 -734 -16 -75 -17 -255 -1
-315 59 -227 234 -454 541 -706 52 -43 127 -105 166 -138 38 -34 97 -83 130
-111 388 -327 520 -553 473 -811 -32 -172 -162 -290 -386 -346 -76 -19 -115
-22 -288 -23 -177 0 -210 3 -290 23 -216 56 -383 173 -507 355 -76 112 -113
221 -132 392 l-11 100 -102 14 c-56 7 -108 11 -116 8 -7 -3 -19 -31 -26 -63
-7 -33 -32 -142 -57 -244 -125 -526 -164 -693 -164 -698 0 -4 57 -6 127 -5
l128 1 58 99 c32 54 65 113 73 131 8 17 19 32 24 32 5 0 24 -13 42 -28 94 -81
269 -177 423 -232 250 -88 622 -122 935 -85 342 41 622 162 814 352 146 145
222 300 248 504 32 256 -66 485 -320 750 -116 121 -219 209 -472 400 -265 200
-375 299 -471 424 -118 154 -154 300 -113 459 25 97 82 163 188 215 101 50
196 66 391 66 193 0 240 -8 360 -65 92 -43 157 -96 238 -192 97 -117 143 -239
154 -409 l6 -96 109 -13 c60 -7 110 -11 112 -9 1 2 35 121 75 264 40 143 82
289 92 325 23 74 99 349 99 356 0 2 -53 4 -118 4 l-118 0 -34 -47 c-19 -27
-54 -78 -78 -115 -24 -38 -48 -68 -52 -68 -5 0 -28 13 -52 29 -82 55 -215 119
-363 174 -71 26 -267 66 -380 77 -123 11 -221 11 -340 -1z"/>
<path d="M30585 10994 c-257 -38 -475 -119 -680 -252 -119 -77 -179 -127 -279
-230 -255 -264 -380 -563 -362 -872 22 -389 217 -600 635 -687 111 -23 150
-26 336 -27 129 0 240 5 289 13 487 81 917 357 1144 735 199 332 211 765 28
1016 -79 108 -165 172 -309 230 -149 60 -234 72 -517 75 -140 2 -268 1 -285
-1z m415 -130 c155 -42 244 -164 257 -349 20 -300 -116 -732 -329 -1042 -199
-289 -415 -423 -683 -423 -124 0 -203 19 -272 66 -105 72 -147 173 -146 354 0
214 62 442 187 687 211 414 405 623 649 702 88 29 239 31 337 5z"/>
<path d="M13427 10983 c-3 -5 -8 -29 -12 -54 l-7 -46 84 -6 c108 -8 177 -29
212 -66 34 -36 37 -21 -49 -266 -37 -104 -91 -260 -120 -345 -30 -85 -85 -245
-124 -355 -38 -110 -97 -278 -130 -373 -33 -95 -75 -201 -94 -235 -56 -104
-145 -162 -278 -182 -34 -5 -38 -9 -48 -50 -6 -24 -11 -46 -11 -49 0 -3 270
-6 600 -6 l600 0 20 46 c12 25 19 48 16 52 -3 3 -50 9 -104 13 -131 10 -175
23 -206 60 -14 17 -26 36 -26 42 0 20 48 207 73 287 22 70 108 312 163 460 13
36 53 148 90 250 199 559 202 566 271 632 54 51 113 79 182 85 l60 6 16 45 c8
25 15 49 15 54 0 10 -1187 11 -1193 1z"/>
<path d="M14792 10973 c-5 -10 -12 -34 -16 -54 l-6 -36 89 -6 c104 -7 194 -38
224 -79 l20 -27 -36 -103 c-20 -57 -96 -276 -168 -488 -330 -969 -310 -917
-377 -999 -61 -75 -110 -99 -258 -127 -19 -3 -44 -56 -44 -93 0 -8 274 -10
1067 -9 l1068 3 102 280 c56 154 103 284 103 288 0 4 -30 7 -67 5 l-67 -3 -41
-60 c-129 -192 -346 -326 -602 -370 -113 -20 -347 -20 -432 0 -204 49 -224
129 -113 460 33 99 117 342 187 540 69 198 140 398 156 445 45 129 78 190 134
246 57 58 138 94 209 94 44 0 44 1 60 47 9 26 16 50 16 55 0 4 -270 8 -600 8
-561 0 -600 -1 -608 -17z"/>
<path d="M16824 10938 l-22 -53 75 -12 c117 -20 186 -63 219 -135 20 -44 18
-62 -51 -783 -8 -77 -23 -237 -34 -355 -19 -193 -35 -363 -59 -607 l-8 -83 90
0 91 1 925 920 c509 506 945 935 970 952 24 17 86 47 137 67 88 34 98 36 164
29 138 -15 229 -56 229 -103 0 -12 -41 -141 -91 -286 -50 -146 -106 -310 -124
-365 -18 -55 -72 -212 -120 -350 -47 -137 -102 -299 -122 -360 -19 -60 -46
-130 -58 -155 -55 -109 -158 -187 -261 -197 -59 -6 -67 -14 -81 -85 l-5 -28
1080 0 c1020 0 1082 1 1091 18 9 17 201 540 201 548 0 2 -34 4 -75 4 l-74 0
-40 -57 c-143 -209 -363 -333 -657 -373 -142 -19 -381 -9 -467 20 -91 31 -137
80 -137 146 0 74 93 361 213 662 l21 54 166 -4 c157 -3 168 -4 223 -31 79 -39
87 -58 87 -207 l0 -120 65 0 c36 0 68 -1 71 -2 11 -5 21 21 69 177 25 83 52
168 59 190 8 22 26 81 41 130 16 50 41 131 56 180 16 50 29 96 29 102 0 9 -18
12 -60 11 l-61 -2 -30 -48 c-69 -108 -190 -191 -323 -224 -87 -21 -346 -32
-346 -13 0 11 55 168 95 269 8 19 37 100 65 180 59 168 76 198 130 234 68 45
148 60 285 53 329 -17 534 -125 617 -324 l22 -53 69 0 69 0 -6 38 c-3 20 -10
116 -16 212 -5 96 -13 196 -16 223 l-6 47 -1406 -2 -1407 -3 -16 -50 c-9 -27
-13 -51 -10 -51 3 -1 39 -10 80 -19 214 -49 245 -101 145 -241 -97 -136 -188
-238 -448 -504 -450 -460 -629 -640 -634 -636 -4 5 37 414 58 571 5 39 18 158
30 265 35 344 39 374 55 425 24 81 33 87 193 115 l141 24 16 45 c8 24 15 48
15 53 0 4 -262 8 -582 8 l-583 0 -21 -52z"/>
<path d="M21569 10963 c-6 -15 -13 -40 -16 -54 -5 -26 -5 -26 79 -32 107 -8
182 -32 214 -70 21 -26 24 -36 18 -76 -8 -64 -39 -168 -70 -238 -23 -51 -98
-261 -224 -628 -211 -612 -212 -615 -278 -690 -46 -51 -135 -103 -191 -110
-75 -10 -86 -18 -98 -69 l-10 -46 594 0 594 0 14 33 c29 71 29 71 -67 79 -156
12 -238 48 -238 106 0 52 95 354 205 651 l31 83 119 -1 c146 -3 197 -13 266
-54 42 -25 60 -44 82 -87 l29 -55 -9 -165 c-14 -280 -11 -325 26 -402 34 -73
76 -115 151 -153 87 -44 170 -59 335 -58 173 0 261 19 373 78 65 34 192 130
192 145 0 6 -96 70 -106 70 -2 0 -30 -20 -61 -45 -117 -90 -229 -107 -291 -45
-36 35 -49 86 -57 215 -8 136 -22 228 -46 303 -41 125 -163 218 -361 272 -88
25 -112 40 -62 40 52 0 241 31 344 57 195 48 333 118 421 210 123 129 157 282
98 438 -56 148 -237 254 -518 302 -81 14 -206 17 -783 20 l-688 4 -11 -28z
m1176 -128 c144 -25 232 -84 263 -174 16 -46 15 -174 -2 -238 -68 -256 -290
-379 -694 -384 -68 -1 -126 1 -129 4 -3 3 17 68 45 144 27 76 85 237 128 358
43 121 87 233 97 249 40 57 127 69 292 41z"/>
<path d="M27056 10727 c-49 -144 -91 -268 -93 -274 -4 -10 14 -13 70 -13 l75
0 32 58 c18 31 63 87 101 124 139 137 388 218 671 218 67 0 88 -3 88 -13 0 -8
-42 -139 -93 -293 -439 -1310 -454 -1350 -523 -1419 -40 -40 -96 -55 -235 -62
l-106 -6 -16 -48 -15 -49 667 0 667 0 16 49 c19 58 21 57 -92 60 -157 4 -252
39 -258 94 -2 14 35 143 82 284 104 317 248 757 428 1312 l30 93 137 -4 c113
-4 149 -10 216 -32 164 -55 254 -146 309 -311 l23 -70 48 -3 c27 -2 59 -1 72
3 l23 5 -2 278 -3 277 -1115 2 -1115 3 -89 -263z"/>
<path d="M32286 10943 c-9 -26 -16 -50 -16 -55 0 -4 21 -8 48 -8 63 0 171 -24
219 -48 53 -27 95 -72 87 -91 -3 -9 -35 -97 -70 -196 -34 -99 -79 -225 -99
-280 -20 -55 -65 -181 -100 -280 -165 -471 -264 -744 -278 -772 -41 -79 -190
-153 -307 -153 -30 0 -30 -1 -30 -55 l0 -55 440 0 440 0 11 28 c6 15 13 39 16
53 5 25 3 27 -52 34 -117 14 -212 60 -241 117 -35 68 20 284 230 902 85 252
157 460 159 463 5 4 50 -65 247 -377 78 -124 157 -247 175 -275 18 -27 68
-106 111 -175 43 -69 88 -139 99 -157 11 -17 45 -71 76 -120 31 -48 79 -124
107 -168 28 -44 91 -143 140 -220 l88 -140 91 -3 92 -3 181 553 c366 1115 358
1093 437 1216 67 106 198 202 276 202 26 0 27 2 27 55 l0 55 -428 0 -427 0
-18 -49 c-9 -27 -17 -51 -17 -53 0 -3 33 -8 73 -11 129 -11 202 -49 238 -124
37 -77 13 -179 -174 -745 -89 -269 -164 -488 -167 -488 -3 1 -30 42 -61 93
-140 229 -587 960 -633 1035 -28 45 -55 90 -61 100 -5 9 -41 68 -79 130 l-68
112 -383 0 -383 0 -16 -47z"/>
<path d="M35069 10963 c-6 -16 -13 -40 -16 -54 -5 -26 -5 -26 79 -32 97 -7
174 -28 213 -59 26 -20 27 -25 23 -82 -5 -60 -30 -138 -84 -266 -15 -36 -64
-175 -110 -310 -192 -570 -283 -832 -307 -884 -32 -68 -101 -144 -164 -179
-27 -14 -78 -31 -114 -37 -60 -11 -67 -14 -73 -38 -3 -15 -8 -37 -12 -50 l-6
-22 1082 2 1082 3 30 85 c26 76 154 435 166 468 3 9 -12 12 -56 12 l-60 0 -65
-82 c-36 -46 -74 -90 -84 -99 -136 -114 -259 -179 -423 -221 -99 -26 -139 -31
-286 -35 -194 -6 -281 4 -361 43 -68 33 -98 74 -98 134 1 30 38 153 115 378
l114 332 147 0 c176 0 254 -19 306 -72 l32 -33 3 -129 3 -128 65 0 64 0 68
208 c37 115 88 274 114 354 26 80 53 164 60 188 l13 42 -63 0 c-42 0 -66 -4
-69 -12 -15 -39 -104 -140 -154 -174 -116 -80 -215 -107 -403 -108 -146 -1
-140 -10 -92 124 17 47 60 168 96 270 75 216 86 240 129 276 69 58 109 69 262
69 149 0 236 -13 349 -52 153 -51 278 -165 325 -295 10 -27 14 -28 76 -28 l65
0 -1 43 c0 23 -8 139 -17 257 l-17 215 -968 3 -967 2 -11 -27z"/>
</g>
</svg>
