<?xml version="1.0" standalone="no"?>
<!DOCTYPE svg PUBLIC "-//W3C//DTD SVG 20010904//EN"
 "http://www.w3.org/TR/2001/REC-SVG-20010904/DTD/svg10.dtd">
<svg version="1.0" xmlns="http://www.w3.org/2000/svg"
 width="2836.000000pt" height="710.000000pt" viewBox="0 0 2836.000000 710.000000"
 preserveAspectRatio="xMidYMid meet">

<g transform="translate(0.000000,710.000000) scale(0.100000,-0.100000)"
fill="#000000" stroke="none">
<path d="M23020 5049 c-979 -77 -1809 -387 -2242 -837 -198 -206 -298 -426
-298 -657 0 -175 47 -327 150 -483 362 -548 1299 -943 2430 -1022 184 -13 400
-13 400 -1 0 17 -16 21 -171 37 -1148 118 -2039 584 -2185 1144 -22 86 -22
235 0 320 124 480 768 886 1701 1075 562 114 1225 135 1830 60 461 -58 956
-195 1273 -353 57 -29 82 -31 82 -7 0 16 -146 125 -265 198 -468 284 -1141
474 -1870 527 -162 12 -681 11 -835 -1z"/>
<path d="M5979 3278 c-288 -600 -525 -1094 -527 -1099 -2 -5 93 -9 210 -9
l214 0 114 245 114 245 404 -2 405 -3 112 -240 111 -240 402 -3 401 -2 10 37
c9 32 241 1021 257 1093 4 19 70 -104 307 -572 166 -328 305 -600 309 -603 8
-8 57 85 364 690 158 313 260 502 262 490 2 -11 62 -269 133 -573 71 -304 129
-555 129 -557 0 -3 86 -5 191 -5 177 0 191 1 187 18 -3 9 -123 501 -268 1092
-144 591 -265 1078 -269 1082 -6 7 -654 -1298 -696 -1402 -10 -25 -22 -49 -25
-53 -4 -4 -27 41 -53 101 -25 60 -187 391 -359 736 -231 465 -314 623 -320
609 -4 -10 -125 -499 -268 -1088 -144 -588 -262 -1074 -263 -1079 -2 -5 -239
483 -527 1083 -288 601 -527 1094 -531 1097 -3 2 -242 -487 -530 -1088z m541
245 c7 -21 62 -145 122 -277 60 -131 107 -240 105 -242 -2 -3 -112 -3 -244 -2
l-240 3 103 225 c57 124 112 249 121 278 9 28 18 52 19 52 1 0 8 -17 14 -37z"/>
<path d="M11160 4359 c-395 -45 -727 -313 -864 -697 -87 -245 -92 -578 -12
-824 93 -283 286 -506 541 -624 274 -127 661 -134 952 -18 209 83 393 257 483
457 67 148 110 351 110 516 l0 81 -490 0 -491 0 3 -102 3 -103 363 -3 363 -2
-7 -53 c-11 -93 -33 -170 -75 -257 -34 -70 -58 -101 -133 -175 -138 -137 -262
-193 -476 -215 -338 -36 -635 106 -818 389 -88 136 -133 299 -134 486 -1 305
76 508 262 696 84 85 107 101 200 146 148 72 222 88 400 87 114 -1 161 -5 222
-22 186 -51 363 -176 466 -329 19 -29 37 -53 40 -53 4 0 88 71 160 135 11 9 3
26 -37 87 -60 89 -173 200 -257 251 -199 121 -499 177 -774 146z"/>
<path d="M14891 4360 c-511 -65 -911 -450 -986 -950 -73 -480 175 -953 615
-1175 363 -183 810 -158 1150 66 511 335 668 996 360 1509 -208 346 -542 540
-955 555 -60 2 -143 0 -184 -5z m389 -240 c520 -147 795 -720 591 -1229 -102
-254 -337 -463 -598 -532 -112 -30 -292 -36 -408 -14 -349 65 -633 347 -706
700 -41 200 -17 409 69 587 128 268 361 451 647 507 84 17 319 6 405 -19z"/>
<path d="M2370 4145 l0 -175 275 0 275 0 0 -900 0 -900 205 0 205 0 0 900 0
900 275 0 275 0 0 175 0 175 -755 0 -755 0 0 -175z"/>
<path d="M4100 3245 l0 -1075 615 0 615 0 0 185 0 185 -410 0 -410 0 0 305 0
305 410 0 410 0 0 180 0 180 -410 0 -410 0 0 230 0 230 410 0 410 0 0 175 0
175 -615 0 -615 0 0 -1075z"/>
<path d="M12580 3246 l0 -1076 120 0 120 0 0 500 0 500 43 0 42 -1 365 -497
366 -497 142 -3 c78 -1 142 -1 142 1 0 2 -169 229 -375 503 l-374 499 60 7
c223 26 381 158 445 373 24 80 24 264 0 354 -54 201 -182 321 -411 383 -72 19
-111 22 -382 26 l-303 4 0 -1076z m651 836 c127 -41 192 -128 208 -278 19
-162 -20 -295 -101 -354 -71 -52 -124 -62 -330 -67 l-188 -5 0 367 0 367 173
-4 c140 -4 184 -9 238 -26z"/>
<path d="M16410 3608 c0 -733 4 -821 41 -968 24 -96 84 -220 139 -288 82 -102
224 -183 385 -218 110 -24 341 -24 450 0 255 56 422 201 500 437 58 172 58
171 62 992 l4 757 -120 0 -121 0 0 -752 c-1 -836 -2 -853 -64 -983 -82 -173
-241 -255 -493 -255 -292 1 -455 114 -525 367 -22 77 -22 92 -26 851 l-3 772
-115 0 -114 0 0 -712z"/>
<path d="M18310 3246 l0 -1076 120 0 120 0 0 469 0 468 178 8 c205 8 318 25
411 62 222 88 325 259 325 538 -1 308 -144 514 -405 581 -51 13 -131 18 -406
21 l-343 5 0 -1076z m587 853 c93 -12 166 -43 211 -90 84 -85 117 -191 109
-343 -5 -87 -9 -108 -39 -165 -61 -121 -166 -160 -455 -169 l-173 -5 0 392 0
391 134 0 c74 0 170 -5 213 -11z"/>
<path d="M21900 4073 c0 -5 -9 -60 -20 -123 -11 -63 -20 -121 -20 -127 0 -10
34 -13 135 -13 124 0 135 -1 135 -18 0 -10 -45 -263 -100 -562 -55 -300 -100
-552 -100 -562 0 -17 14 -18 189 -18 107 0 192 4 196 9 3 5 50 256 105 558 55
301 102 558 105 570 5 22 10 23 142 25 l137 3 18 105 c9 58 19 117 22 133 l6
27 -475 0 c-261 0 -475 -3 -475 -7z"/>
<path d="M23082 3795 c-176 -40 -277 -134 -326 -305 -9 -30 -34 -152 -57 -270
-68 -347 -59 -446 43 -520 105 -77 327 -88 465 -25 62 28 154 112 189 171 22
37 64 176 64 211 0 11 -29 13 -152 11 l-152 -3 -18 -89 c-10 -49 -26 -103 -36
-120 -22 -37 -71 -54 -107 -38 -33 15 -32 53 3 242 l28 145 231 3 231 2 12 53
c25 116 41 254 35 300 -14 111 -76 188 -177 221 -73 24 -199 29 -276 11z m126
-177 c14 -14 15 -96 2 -158 -22 -99 -13 -90 -85 -90 -36 0 -65 4 -65 9 0 5 9
53 20 106 25 120 40 145 91 145 14 0 30 -5 37 -12z"/>
<path d="M23991 3795 c-128 -29 -226 -94 -274 -183 -28 -51 -67 -185 -67 -229
l0 -23 149 0 150 0 11 58 c36 184 49 212 99 212 48 0 65 -30 57 -103 -10 -103
-31 -160 -65 -180 -16 -9 -81 -37 -145 -62 -266 -103 -305 -141 -340 -335 -30
-168 -26 -212 22 -260 29 -29 50 -40 95 -50 87 -18 152 -1 234 61 l65 50 -7
-51 -7 -50 155 0 c140 0 156 2 161 18 8 26 123 642 141 752 18 112 19 223 4
253 -23 44 -74 88 -128 108 -73 27 -223 34 -310 14z m38 -746 c-18 -98 -38
-174 -48 -189 -20 -28 -73 -39 -97 -19 -31 25 -6 200 38 265 19 27 129 117
135 110 2 -2 -11 -77 -28 -167z"/>
<path d="M25121 3795 c-30 -9 -62 -21 -70 -27 -9 -7 -37 -30 -63 -50 l-46 -38
14 52 c7 29 14 54 14 56 0 1 -73 1 -162 0 l-163 -3 -106 -560 c-58 -308 -104
-563 -102 -567 2 -5 73 -8 158 -8 l154 0 10 53 c6 28 42 221 81 427 78 414 85
440 112 470 26 28 73 26 93 -3 20 -30 16 -58 -79 -552 -40 -209 -71 -383 -69
-387 7 -12 301 -10 308 2 4 6 42 197 85 425 90 472 94 489 121 516 21 21 69
25 87 7 24 -24 10 -128 -67 -533 -43 -225 -77 -413 -74 -417 6 -12 301 -10
308 2 3 5 42 197 87 427 68 353 81 435 82 526 l1 108 -37 34 c-90 83 -249 65
-354 -41 l-41 -41 -34 46 c-19 25 -48 53 -66 63 -43 26 -117 31 -182 13z"/>
</g>
</svg>
