<?xml version="1.0" encoding="utf-8"?>
<svg viewBox="-543.657 64.142 1702 219.9" width="1702" height="219.9" xmlns="http://www.w3.org/2000/svg">
  <path id="Path 0" fill-rule="evenodd" class="s0" d="m149 656h109.5c60.2 0 109.6 0.3 109.8 0.8 0.2 0.4 0.2 21.5-0.3 93.2h-219zm1683 76.1c2.5 0 6.4 0.8 8.8 1.9 2.8 1.4 5.2 3.5 7.2 6.8 1.9 2.9 3 6 3 8.2 0 1.9-0.5 5.1-1.1 7-0.6 1.9-2.8 5.2-4.8 7.2-2 2.1-5.3 4.2-7.6 4.9-2.2 0.6-5.8 0.8-8 0.4-2.2-0.3-5.6-1.6-7.5-2.9-1.9-1.2-4.5-4.2-5.7-6.7-1.3-2.4-2.3-6.3-2.3-8.6 0-2.4 0.9-6 1.9-8 1-2.1 2.7-4.5 3.7-5.4 1.1-0.9 3.2-2.4 4.9-3.2 1.7-0.9 5-1.6 7.5-1.6zm-12 11.2c-1.1 1.8-2 5-2 7.2 0 2.2 0.9 5.4 2 7.3 1.1 1.7 3 3.9 4.3 4.7 1.2 0.8 4 1.8 6.2 2.1 2.9 0.5 5 0.1 7.8-1.2 2.8-1.5 3.4-2.1 2.4-2.9-0.7-0.5-2.5-2.7-4-4.7-2.1-3-3.4-3.8-5.7-3.8-2.9 0-3 0.2-3 4.5 0 3.1-0.4 4.4-1.2 4.2-0.9-0.3-1.4-3.4-1.5-10.5l-0.3-10.2c11.9 0 14.5 0.5 15.5 1.5 0.8 0.8 1.5 2.6 1.5 4 0 1.5-1 3.2-2.4 4.3l-2.3 1.7c6 7.4 6.3 7.5 7.7 5.9 0.8-1 1.6-3.6 1.8-5.8 0.2-2.5-0.4-5.4-1.5-7.6-1-1.9-3.4-4.5-5.3-5.8-2.2-1.4-5-2.2-7.5-2.2-2.2 0-5.5 0.9-7.2 2-1.8 1.1-4.2 3.5-5.3 5.3zm8.1 2.1c-0.1 3.5 0 3.6 3.7 3.6 2 0 4.6-0.6 5.7-1.4 1.6-1.2 1.8-1.8 0.9-3.3-0.8-1.2-2.6-1.9-5.7-2.1l-4.6-0.3zm-1679 26.5h48.5c26.6 0 48.6 0.4 48.9 0.8 0.2 0.4 0.1 23.8-0.9 103.2h-46.8c-25.7 0-47.4-0.2-48.2-0.5-1.4-0.4-1.5-7.1-1.5-52zm122 0h97v104h-97zm180-8h107v9h-45v56h-17v-56h-45zm127 12h16v21h64v-21h15v53h-15v-23h-21.3c-11.7 0-26.1-0.3-42.8-1.5l0.1 24.5h-16zm132 0h82v8h-66v13l39.5 0.5v8l-39.5 0.5v15l66.5 0.5 0.5 7.5h-83zm111 0l35.2 0.1c25.1 0 36.4 0.3 39.2 1.2 2.1 0.7 4.7 2.4 5.7 3.7 1.6 2.1 1.9 4.2 1.9 11.5 0 7-0.4 9.5-1.8 11.2-0.9 1.2-3.3 2.7-5.2 3.4-2 0.7-6.9 1.5-18.5 2.4l32.7 19-20.2 0.5-31-20h-23v20h-15zm15 25c36 0 47-0.4 48.5-1 2.3-0.9 2.5-1.5 2.5-7.5 0-6.4-0.1-6.5-3.3-7.5-1.8-0.5-13.2-1-25.5-1h-22.2zm101-25h13l40.1 34.5 2.2-2.1c1.2-1.1 9.6-8.9 35.2-32.5l14 0.6v3.3c0 1.8-0.2 13.8-0.5 50.2h-4.8c-2.6 0-5.8-0.2-7-0.5-2.2-0.5-2.2-0.5-2.3-20.7-0.1-11.1-0.3-19.7-0.5-19-0.3 0.7-8.1 8-17.4 16.2-11.3 10-17.8 15-19.3 15-1.4 0-8.2-5-18.2-13.5-8.8-7.4-17.3-14.8-21.5-19.5v41h-13zm261 0h15v45h63v9h-78zm102 0h32.7c18 0 35.2 0.5 38.3 1 4 0.8 6.2 1.8 8.2 4 2.6 2.8 2.8 3.7 2.8 11.8 0 6.1-0.5 9.4-1.5 11-0.9 1.2-2.8 2.8-4.3 3.4-1.5 0.7-6.8 1.4-20.6 2.3l16.1 9.5c8.9 5.3 16 9.9 15.7 10.3-0.2 0.4-4.4 0.7-17.9 0.7l-32.5-21h-22v21l-7.8-0.2c-5.4-0.2-7.7-0.6-7.7-1.5 0-0.7 0.1-12.7 0.2-26.8zm15 25c42.4 0 48.9-0.3 49.8-1.2 0.7-0.7 1.2-3.8 1.2-7 0-4.7-0.3-5.9-2-6.8-1.2-0.5-11.8-1-25.5-1h-23.5zm-190.9-24c0.5 0 11.5 11.3 24.4 25 12.9 13.8 23.4 25.4 23.3 25.8-0.2 0.4-2.7 0.7-11 0.7l-12.1-13c-6.7-7.1-15-15.9-24.7-26l-6.8 7c-3.7 3.9-11.9 12.6-29.7 31.6l-12.7-0.6 24.2-25.2c13.3-13.9 24.6-25.3 25.1-25.3zm291.9 0h16.5l-0.7 7.8c-0.5 4.3-0.8 16.2-0.8 45.2h-15zm98 0.3c32 0.2 39 0.5 41.5 1.8 2 1 3.5 2.8 4.5 5.7 1 2.8 1.2 4.5 0.5 5.1-0.5 0.5-4.3 1.2-15.5 2.1v-7h-63v37h63v-14l-32.5-0.5-0.5-7.5h49v9.5c0 6.3-0.5 10.8-1.5 13-0.8 2-2.7 4.3-4.2 5.3-2.5 1.6-6.2 1.7-41.2 1.7-32.1 0-39.2-0.2-42-1.5-1.8-0.8-4-2.7-4.7-4.2-1-2-1.4-7.5-1.4-20.5 0-12.2 0.4-18.5 1.3-20.3 0.7-1.3 2.8-3.2 4.7-4.2 3.2-1.6 6.9-1.8 42-1.5zm80-0.3h16v21h63v-21h16v53h-16v-23h-14.2c-7.9 0-22.1-0.3-48.8-1.5v24.5h-16zm117 0h92v8h-38v45h-16v-45h-38zm-599 31h26l-0.5 5.5-25.5 0.5zm0 8h11v7h-11zm13.9 0h12.1l-0.2 3.3c-0.3 3.2-0.3 3.2-5.8 3.2-5.5 0-5.5 0-5.8-3.2z" transform="matrix(1, 0, 0, 1, -692.656738, -591.857544)"/>
</svg>