<?xml version="1.0" encoding="UTF-8" standalone="no"?>
<!-- Generator: Adobe Illustrator 12.0.0, SVG Export Plug-In . SVG Version: 6.00 Build 51448)  -->

<svg
   xmlns:dc="http://purl.org/dc/elements/1.1/"
   xmlns:cc="http://creativecommons.org/ns#"
   xmlns:rdf="http://www.w3.org/1999/02/22-rdf-syntax-ns#"
   xmlns:svg="http://www.w3.org/2000/svg"
   xmlns="http://www.w3.org/2000/svg"
   xmlns:sodipodi="http://sodipodi.sourceforge.net/DTD/sodipodi-0.dtd"
   xmlns:inkscape="http://www.inkscape.org/namespaces/inkscape"
   version="1.1"
   id="Layer_1"
   width="200"
   height="44"
   viewBox="0 0 200 44"
   overflow="visible"
   enable-background="new 0 0 719.263 132.888"
   xml:space="preserve"
   inkscape:version="0.48.4 r9939"
   sodipodi:docname="Zalman logo.svg"
   style="overflow:visible"><title
   id="title2998">Zalman Tech Co., Ltd. logo</title><metadata
   id="metadata21"><rdf:RDF><cc:Work
       rdf:about=""><dc:format>image/svg+xml</dc:format><dc:type
         rdf:resource="http://purl.org/dc/dcmitype/StillImage" /><dc:title>Zalman Tech Co., Ltd. logo</dc:title></cc:Work></rdf:RDF></metadata><defs
   id="defs19" /><sodipodi:namedview
   pagecolor="#ffffff"
   bordercolor="#666666"
   borderopacity="1"
   objecttolerance="10"
   gridtolerance="10"
   guidetolerance="10"
   inkscape:pageopacity="0"
   inkscape:pageshadow="2"
   inkscape:window-width="1600"
   inkscape:window-height="844"
   id="namedview17"
   showgrid="false"
   inkscape:zoom="4.916429"
   inkscape:cx="87.236572"
   inkscape:cy="25.764067"
   inkscape:window-x="-4"
   inkscape:window-y="-4"
   inkscape:window-maximized="1"
   inkscape:current-layer="Layer_1" />
<g
   id="g3"
   transform="matrix(0.27703775,0,0,0.3266902,0,0.5867921)">
	<polygon
   points="40.417,101.648 103.092,30.33 103.092,0 0,0 0,31.25 62.671,31.25 0,102.559 0,132.888 103.092,132.888 103.092,101.648 "
   id="polygon5"
   style="fill:#0000ff" />
	<polygon
   points="193.04,0 157.405,0 109.888,132.888 142.881,132.888 175.222,43.7 207.563,132.888 240.558,132.888 "
   id="polygon7"
   style="fill:#0000ff" />
	<polygon
   points="334.224,101.648 279.402,101.648 279.402,0 248.149,0 248.149,132.888 334.224,132.888 "
   id="polygon9"
   style="fill:#0000ff" />
	<polygon
   points="341.01,132.888 370.448,132.888 370.448,57.981 389.72,132.888 419.163,132.888 438.442,57.981 438.442,132.888 467.876,132.888 467.876,0 426.675,0 404.444,88.234 382.216,0 341.01,0 "
   id="polygon11"
   style="fill:#0000ff" />
	<polygon
   points="557.827,0 522.177,0 474.657,132.888 507.659,132.888 540.001,43.7 572.343,132.888 605.335,132.888 "
   id="polygon13"
   style="fill:#0000ff" />
	<polygon
   points="688.017,0 688.017,81.014 644.876,0 612.126,0 612.126,132.888 643.38,132.888 643.38,52.838 686.899,132.888 719.263,132.888 719.263,0 "
   id="polygon15"
   style="fill:#0000ff" />
</g>
</svg>